<?xml version="1.0" standalone="no"?>
 <!DOCTYPE svg PUBLIC "-//W3C//DTD SVG 1.1//EN" 
 "http://www.w3.org/Graphics/SVG/1.1/DTD/svg11.dtd"> 
<svg
  xmlns:svg="http://www.w3.org/2000/svg"
  xmlns="http://www.w3.org/2000/svg"
  xmlns:xlink="http://www.w3.org/1999/xlink"
  version="1.1"
  width="29.700220cm" height="21.000720cm" viewBox="0 0 297002200 210007200">
<title>SVG Picture created as misura_corrente-F_Silkscreen.svg date 2022/06/01 09:30:07 </title>
  <desc>Picture generated by PCBNEW </desc>
<g style="fill:#000000; fill-opacity:1.000000;stroke:#000000; stroke-opacity:1.000000;
stroke-linecap:round; stroke-linejoin:round;"
 transform="translate(0 0) scale(1 1)">
</g>
<g style="fill:#000000; fill-opacity:0.0; 
stroke:#000000; stroke-width:0.000000; stroke-opacity:1; 
stroke-linecap:round; stroke-linejoin:round;">
</g>
<g style="fill:#000000; fill-opacity:0.0; 
stroke:#000000; stroke-width:150000.000000; stroke-opacity:1; 
stroke-linecap:round; stroke-linejoin:round;">
<text x="80030000.000000" y="51010000.000000"
textLength="5337857.000000" font-size="1333333.000000" lengthAdjust="spacingAndGlyphs"
text-anchor="middle" opacity="0">C0-P1</text>
<g class="stroked-text"><desc>C0-P1</desc>
<path d="M78268095 50867142
L78220476 50914761
L78077619 50962380
L77982380 50962380
L77839523 50914761
L77744285 50819523
L77696666 50724285
L77649047 50533809
L77649047 50390952
L77696666 50200476
L77744285 50105238
L77839523 50010000
L77982380 49962380
L78077619 49962380
L78220476 50010000
L78268095 50057619
" />
<path d="M78887142 49962380
L78982380 49962380
L79077619 50010000
L79125238 50057619
L79172857 50152857
L79220476 50343333
L79220476 50581428
L79172857 50771904
L79125238 50867142
L79077619 50914761
L78982380 50962380
L78887142 50962380
L78791904 50914761
L78744285 50867142
L78696666 50771904
L78649047 50581428
L78649047 50343333
L78696666 50152857
L78744285 50057619
L78791904 50010000
L78887142 49962380
" />
<path d="M79649047 50581428
L80410952 50581428
" />
<path d="M80887142 50962380
L80887142 49962380
L81268095 49962380
L81363333 50010000
L81410952 50057619
L81458571 50152857
L81458571 50295714
L81410952 50390952
L81363333 50438571
L81268095 50486190
L80887142 50486190
" />
<path d="M82410952 50962380
L81839523 50962380
" />
<path d="M82125238 50962380
L82125238 49962380
L82030000 50105238
L81934761 50200476
L81839523 50248095
" />
</g><g transform="rotate(-90.000000 73490000.000000 76200000.000000)">
<text x="73490000.000000" y="76700000.000000"
textLength="2147381.000000" font-size="1333333.000000" lengthAdjust="spacingAndGlyphs"
text-anchor="middle" opacity="0">R2</text>
</g>
<g class="stroked-text"><desc>R2</desc>
<path d="M73942380 76366666
L73466190 76700000
" />
<path d="M73942380 76938095
L72942380 76938095
L72942380 76557142
L72990000 76461904
L73037619 76414285
L73132857 76366666
L73275714 76366666
L73370952 76414285
L73418571 76461904
L73466190 76557142
L73466190 76938095
" />
<path d="M73037619 75985714
L72990000 75938095
L72942380 75842857
L72942380 75604761
L72990000 75509523
L73037619 75461904
L73132857 75414285
L73228095 75414285
L73370952 75461904
L73942380 76033333
L73942380 75414285
" />
</g><g transform="rotate(-90.000000 100170000.000000 57230000.000000)">
<text x="100170000.000000" y="57730000.000000"
textLength="3004524.000000" font-size="1333333.000000" lengthAdjust="spacingAndGlyphs"
text-anchor="middle" opacity="0">RV2</text>
</g>
<g class="stroked-text"><desc>RV2</desc>
<path d="M100622380 57825238
L100146190 58158571
" />
<path d="M100622380 58396666
L99622380 58396666
L99622380 58015714
L99670000 57920476
L99717619 57872857
L99812857 57825238
L99955714 57825238
L100050952 57872857
L100098571 57920476
L100146190 58015714
L100146190 58396666
" />
<path d="M99622380 57539523
L100622380 57206190
L99622380 56872857
" />
<path d="M99717619 56587142
L99670000 56539523
L99622380 56444285
L99622380 56206190
L99670000 56110952
L99717619 56063333
L99812857 56015714
L99908095 56015714
L100050952 56063333
L100622380 56634761
L100622380 56015714
" />
</g><g transform="rotate(-90.000000 62465000.000000 44970000.000000)">
<text x="62465000.000000" y="45470000.000000"
textLength="2147381.000000" font-size="1333333.000000" lengthAdjust="spacingAndGlyphs"
text-anchor="middle" opacity="0">C2</text>
</g>
<g class="stroked-text"><desc>C2</desc>
<path d="M62822142 45136666
L62869761 45184285
L62917380 45327142
L62917380 45422380
L62869761 45565238
L62774523 45660476
L62679285 45708095
L62488809 45755714
L62345952 45755714
L62155476 45708095
L62060238 45660476
L61965000 45565238
L61917380 45422380
L61917380 45327142
L61965000 45184285
L62012619 45136666
" />
<path d="M62012619 44755714
L61965000 44708095
L61917380 44612857
L61917380 44374761
L61965000 44279523
L62012619 44231904
L62107857 44184285
L62203095 44184285
L62345952 44231904
L62917380 44803333
L62917380 44184285
" />
</g><text x="80020000.000000" y="50250000.000000"
textLength="2195000.000000" font-size="1333333.000000" lengthAdjust="spacingAndGlyphs"
text-anchor="middle" opacity="0">U0</text>
<g class="stroked-text"><desc>U0</desc>
<path d="M79258095 49202380
L79258095 50011904
L79305714 50107142
L79353333 50154761
L79448571 50202380
L79639047 50202380
L79734285 50154761
L79781904 50107142
L79829523 50011904
L79829523 49202380
" />
<path d="M80496190 49202380
L80591428 49202380
L80686666 49250000
L80734285 49297619
L80781904 49392857
L80829523 49583333
L80829523 49821428
L80781904 50011904
L80734285 50107142
L80686666 50154761
L80591428 50202380
L80496190 50202380
L80400952 50154761
L80353333 50107142
L80305714 50011904
L80258095 49821428
L80258095 49583333
L80305714 49392857
L80353333 49297619
L80400952 49250000
L80496190 49202380
" />
</g><text x="94000000.000000" y="51010000.000000"
textLength="5337857.000000" font-size="1333333.000000" lengthAdjust="spacingAndGlyphs"
text-anchor="middle" opacity="0">C2-P1</text>
<g class="stroked-text"><desc>C2-P1</desc>
<path d="M92238095 50867142
L92190476 50914761
L92047619 50962380
L91952380 50962380
L91809523 50914761
L91714285 50819523
L91666666 50724285
L91619047 50533809
L91619047 50390952
L91666666 50200476
L91714285 50105238
L91809523 50010000
L91952380 49962380
L92047619 49962380
L92190476 50010000
L92238095 50057619
" />
<path d="M92619047 50057619
L92666666 50010000
L92761904 49962380
L93000000 49962380
L93095238 50010000
L93142857 50057619
L93190476 50152857
L93190476 50248095
L93142857 50390952
L92571428 50962380
L93190476 50962380
" />
<path d="M93619047 50581428
L94380952 50581428
" />
<path d="M94857142 50962380
L94857142 49962380
L95238095 49962380
L95333333 50010000
L95380952 50057619
L95428571 50152857
L95428571 50295714
L95380952 50390952
L95333333 50438571
L95238095 50486190
L94857142 50486190
" />
<path d="M96380952 50962380
L95809523 50962380
" />
<path d="M96095238 50962380
L96095238 49962380
L96000000 50105238
L95904761 50200476
L95809523 50248095
" />
</g><g transform="rotate(-90.000000 56365000.000000 52070000.000000)">
<text x="56365000.000000" y="52570000.000000"
textLength="2195000.000000" font-size="1333333.000000" lengthAdjust="spacingAndGlyphs"
text-anchor="middle" opacity="0">U3</text>
</g>
<g class="stroked-text"><desc>U3</desc>
<path d="M55817380 52831904
L56626904 52831904
L56722142 52784285
L56769761 52736666
L56817380 52641428
L56817380 52450952
L56769761 52355714
L56722142 52308095
L56626904 52260476
L55817380 52260476
" />
<path d="M55817380 51879523
L55817380 51260476
L56198333 51593809
L56198333 51450952
L56245952 51355714
L56293571 51308095
L56388809 51260476
L56626904 51260476
L56722142 51308095
L56769761 51355714
L56817380 51450952
L56817380 51736666
L56769761 51831904
L56722142 51879523
" />
</g><text x="93990000.000000" y="50250000.000000"
textLength="2195000.000000" font-size="1333333.000000" lengthAdjust="spacingAndGlyphs"
text-anchor="middle" opacity="0">U2</text>
<g class="stroked-text"><desc>U2</desc>
<path d="M93228095 49202380
L93228095 50011904
L93275714 50107142
L93323333 50154761
L93418571 50202380
L93609047 50202380
L93704285 50154761
L93751904 50107142
L93799523 50011904
L93799523 49202380
" />
<path d="M94228095 49297619
L94275714 49250000
L94370952 49202380
L94609047 49202380
L94704285 49250000
L94751904 49297619
L94799523 49392857
L94799523 49488095
L94751904 49630952
L94180476 50202380
L94799523 50202380
" />
</g><g transform="rotate(-90.000000 63245000.000000 54610000.000000)">
<text x="63245000.000000" y="55110000.000000"
textLength="2147381.000000" font-size="1333333.000000" lengthAdjust="spacingAndGlyphs"
text-anchor="middle" opacity="0">D1</text>
</g>
<g class="stroked-text"><desc>D1</desc>
<path d="M63697380 55348095
L62697380 55348095
L62697380 55110000
L62745000 54967142
L62840238 54871904
L62935476 54824285
L63125952 54776666
L63268809 54776666
L63459285 54824285
L63554523 54871904
L63649761 54967142
L63697380 55110000
L63697380 55348095
" />
<path d="M63697380 53824285
L63697380 54395714
" />
<path d="M63697380 54110000
L62697380 54110000
L62840238 54205238
L62935476 54300476
L62983095 54395714
" />
</g><g transform="rotate(-90.000000 63615000.000000 59690000.000000)">
<text x="63615000.000000" y="60190000.000000"
textLength="1195000.000000" font-size="1333333.000000" lengthAdjust="spacingAndGlyphs"
text-anchor="middle" opacity="0">K</text>
</g>
<g class="stroked-text"><desc>K</desc>
<path d="M64067380 59951904
L63067380 59951904
" />
<path d="M64067380 59380476
L63495952 59809047
" />
<path d="M63067380 59380476
L63638809 59951904
" />
</g><g transform="rotate(-90.000000 55980000.000000 70987677.000000)">
<text x="55980000.000000" y="71487677.000000"
textLength="2147381.000000" font-size="1333333.000000" lengthAdjust="spacingAndGlyphs"
text-anchor="middle" opacity="0">C4</text>
</g>
<g class="stroked-text"><desc>C4</desc>
<path d="M56337142 71154343
L56384761 71201962
L56432380 71344819
L56432380 71440057
L56384761 71582915
L56289523 71678153
L56194285 71725772
L56003809 71773391
L55860952 71773391
L55670476 71725772
L55575238 71678153
L55480000 71582915
L55432380 71440057
L55432380 71344819
L55480000 71201962
L55527619 71154343
" />
<path d="M55765714 70297200
L56432380 70297200
" />
<path d="M55384761 70535296
L56099047 70773391
L56099047 70154343
" />
</g><text x="59385000.000000" y="62440000.000000"
textLength="2147381.000000" font-size="1333333.000000" lengthAdjust="spacingAndGlyphs"
text-anchor="middle" opacity="0">C1</text>
<g class="stroked-text"><desc>C1</desc>
<path d="M59218333 62297142
L59170714 62344761
L59027857 62392380
L58932619 62392380
L58789761 62344761
L58694523 62249523
L58646904 62154285
L58599285 61963809
L58599285 61820952
L58646904 61630476
L58694523 61535238
L58789761 61440000
L58932619 61392380
L59027857 61392380
L59170714 61440000
L59218333 61487619
" />
<path d="M60170714 62392380
L59599285 62392380
" />
<path d="M59885000 62392380
L59885000 61392380
L59789761 61535238
L59694523 61630476
L59599285 61678095
" />
</g><text x="48260000.000000" y="83930000.000000"
textLength="4480714.000000" font-size="1333333.000000" lengthAdjust="spacingAndGlyphs"
text-anchor="middle" opacity="0">REF**</text>
<g class="stroked-text"><desc>REF**</desc>
<path d="M46926666 83882380
L46593333 83406190
" />
<path d="M46355238 83882380
L46355238 82882380
L46736190 82882380
L46831428 82930000
L46879047 82977619
L46926666 83072857
L46926666 83215714
L46879047 83310952
L46831428 83358571
L46736190 83406190
L46355238 83406190
" />
<path d="M47355238 83358571
L47688571 83358571
" />
<path d="M47831428 83882380
L47355238 83882380
L47355238 82882380
L47831428 82882380
" />
<path d="M48593333 83358571
L48260000 83358571
" />
<path d="M48260000 83882380
L48260000 82882380
L48736190 82882380
" />
<path d="M49260000 82882380
L49260000 83120476
" />
<path d="M49021904 83025238
L49260000 83120476
L49498095 83025238
" />
<path d="M49117142 83310952
L49260000 83120476
L49402857 83310952
" />
<path d="M50021904 82882380
L50021904 83120476
" />
<path d="M49783809 83025238
L50021904 83120476
L50260000 83025238
" />
<path d="M49879047 83310952
L50021904 83120476
L50164761 83310952
" />
</g><g transform="rotate(-90.000000 43055000.000000 57375000.000000)">
<text x="43055000.000000" y="57875000.000000"
textLength="6671190.000000" font-size="1333333.000000" lengthAdjust="spacingAndGlyphs"
text-anchor="middle" opacity="0">J-Sens1</text>
</g>
<g class="stroked-text"><desc>J-Sens1</desc>
<path d="M42507380 60089285
L43221666 60089285
L43364523 60136904
L43459761 60232142
L43507380 60375000
L43507380 60470238
" />
<path d="M43126428 59613095
L43126428 58851190
" />
<path d="M43459761 58422619
L43507380 58279761
L43507380 58041666
L43459761 57946428
L43412142 57898809
L43316904 57851190
L43221666 57851190
L43126428 57898809
L43078809 57946428
L43031190 58041666
L42983571 58232142
L42935952 58327380
L42888333 58375000
L42793095 58422619
L42697857 58422619
L42602619 58375000
L42555000 58327380
L42507380 58232142
L42507380 57994047
L42555000 57851190
" />
<path d="M43459761 57041666
L43507380 57136904
L43507380 57327380
L43459761 57422619
L43364523 57470238
L42983571 57470238
L42888333 57422619
L42840714 57327380
L42840714 57136904
L42888333 57041666
L42983571 56994047
L43078809 56994047
L43174047 57470238
" />
<path d="M42840714 56565476
L43507380 56565476
" />
<path d="M42935952 56565476
L42888333 56517857
L42840714 56422619
L42840714 56279761
L42888333 56184523
L42983571 56136904
L43507380 56136904
" />
<path d="M43459761 55708333
L43507380 55613095
L43507380 55422619
L43459761 55327380
L43364523 55279761
L43316904 55279761
L43221666 55327380
L43174047 55422619
L43174047 55565476
L43126428 55660714
L43031190 55708333
L42983571 55708333
L42888333 55660714
L42840714 55565476
L42840714 55422619
L42888333 55327380
" />
<path d="M43507380 54327380
L43507380 54898809
" />
<path d="M43507380 54613095
L42507380 54613095
L42650238 54708333
L42745476 54803571
L42793095 54898809
" />
</g><text x="79990000.000000" y="83340000.000000"
textLength="5385476.000000" font-size="1333333.000000" lengthAdjust="spacingAndGlyphs"
text-anchor="middle" opacity="0">C1-N1</text>
<g class="stroked-text"><desc>C1-N1</desc>
<path d="M78204285 83197142
L78156666 83244761
L78013809 83292380
L77918571 83292380
L77775714 83244761
L77680476 83149523
L77632857 83054285
L77585238 82863809
L77585238 82720952
L77632857 82530476
L77680476 82435238
L77775714 82340000
L77918571 82292380
L78013809 82292380
L78156666 82340000
L78204285 82387619
" />
<path d="M79156666 83292380
L78585238 83292380
" />
<path d="M78870952 83292380
L78870952 82292380
L78775714 82435238
L78680476 82530476
L78585238 82578095
" />
<path d="M79585238 82911428
L80347142 82911428
" />
<path d="M80823333 83292380
L80823333 82292380
L81394761 83292380
L81394761 82292380
" />
<path d="M82394761 83292380
L81823333 83292380
" />
<path d="M82109047 83292380
L82109047 82292380
L82013809 82435238
L81918571 82530476
L81823333 82578095
" />
</g><text x="72310000.000000" y="62980000.000000"
textLength="2147381.000000" font-size="1333333.000000" lengthAdjust="spacingAndGlyphs"
text-anchor="middle" opacity="0">D0</text>
<g class="stroked-text"><desc>D0</desc>
<path d="M71571904 62932380
L71571904 61932380
L71810000 61932380
L71952857 61980000
L72048095 62075238
L72095714 62170476
L72143333 62360952
L72143333 62503809
L72095714 62694285
L72048095 62789523
L71952857 62884761
L71810000 62932380
L71571904 62932380
" />
<path d="M72762380 61932380
L72857619 61932380
L72952857 61980000
L73000476 62027619
L73048095 62122857
L73095714 62313333
L73095714 62551428
L73048095 62741904
L73000476 62837142
L72952857 62884761
L72857619 62932380
L72762380 62932380
L72667142 62884761
L72619523 62837142
L72571904 62741904
L72524285 62551428
L72524285 62313333
L72571904 62122857
L72619523 62027619
L72667142 61980000
L72762380 61932380
" />
</g><g transform="rotate(-90.000000 96350000.000000 73660000.000000)">
<text x="96350000.000000" y="74160000.000000"
textLength="2147381.000000" font-size="1333333.000000" lengthAdjust="spacingAndGlyphs"
text-anchor="middle" opacity="0">R0</text>
</g>
<g class="stroked-text"><desc>R0</desc>
<path d="M96802380 73826666
L96326190 74160000
" />
<path d="M96802380 74398095
L95802380 74398095
L95802380 74017142
L95850000 73921904
L95897619 73874285
L95992857 73826666
L96135714 73826666
L96230952 73874285
L96278571 73921904
L96326190 74017142
L96326190 74398095
" />
<path d="M95802380 73207619
L95802380 73112380
L95850000 73017142
L95897619 72969523
L95992857 72921904
L96183333 72874285
L96421428 72874285
L96611904 72921904
L96707142 72969523
L96754761 73017142
L96802380 73112380
L96802380 73207619
L96754761 73302857
L96707142 73350476
L96611904 73398095
L96421428 73445714
L96183333 73445714
L95992857 73398095
L95897619 73350476
L95850000 73302857
L95802380 73207619
" />
</g><g transform="rotate(-90.000000 113905000.000000 73655000.000000)">
<text x="113905000.000000" y="74155000.000000"
textLength="6004524.000000" font-size="1333333.000000" lengthAdjust="spacingAndGlyphs"
text-anchor="middle" opacity="0">J-OUT1</text>
</g>
<g class="stroked-text"><desc>J-OUT1</desc>
<path d="M113357380 76035952
L114071666 76035952
L114214523 76083571
L114309761 76178809
L114357380 76321666
L114357380 76416904
" />
<path d="M113976428 75559761
L113976428 74797857
" />
<path d="M113357380 74131190
L113357380 73940714
L113405000 73845476
L113500238 73750238
L113690714 73702619
L114024047 73702619
L114214523 73750238
L114309761 73845476
L114357380 73940714
L114357380 74131190
L114309761 74226428
L114214523 74321666
L114024047 74369285
L113690714 74369285
L113500238 74321666
L113405000 74226428
L113357380 74131190
" />
<path d="M113357380 73274047
L114166904 73274047
L114262142 73226428
L114309761 73178809
L114357380 73083571
L114357380 72893095
L114309761 72797857
L114262142 72750238
L114166904 72702619
L113357380 72702619
" />
<path d="M113357380 72369285
L113357380 71797857
" />
<path d="M114357380 72083571
L113357380 72083571
" />
<path d="M114357380 70940714
L114357380 71512142
" />
<path d="M114357380 71226428
L113357380 71226428
L113500238 71321666
L113595476 71416904
L113643095 71512142
" />
</g><g transform="rotate(-90.000000 87800000.000000 73660000.000000)">
<text x="87800000.000000" y="74160000.000000"
textLength="2147381.000000" font-size="1333333.000000" lengthAdjust="spacingAndGlyphs"
text-anchor="middle" opacity="0">R1</text>
</g>
<g class="stroked-text"><desc>R1</desc>
<path d="M88252380 73826666
L87776190 74160000
" />
<path d="M88252380 74398095
L87252380 74398095
L87252380 74017142
L87300000 73921904
L87347619 73874285
L87442857 73826666
L87585714 73826666
L87680952 73874285
L87728571 73921904
L87776190 74017142
L87776190 74398095
" />
<path d="M88252380 72874285
L88252380 73445714
" />
<path d="M88252380 73160000
L87252380 73160000
L87395238 73255238
L87490476 73350476
L87538095 73445714
" />
</g><text x="110490000.000000" y="83930000.000000"
textLength="4480714.000000" font-size="1333333.000000" lengthAdjust="spacingAndGlyphs"
text-anchor="middle" opacity="0">REF**</text>
<g class="stroked-text"><desc>REF**</desc>
<path d="M109156666 83882380
L108823333 83406190
" />
<path d="M108585238 83882380
L108585238 82882380
L108966190 82882380
L109061428 82930000
L109109047 82977619
L109156666 83072857
L109156666 83215714
L109109047 83310952
L109061428 83358571
L108966190 83406190
L108585238 83406190
" />
<path d="M109585238 83358571
L109918571 83358571
" />
<path d="M110061428 83882380
L109585238 83882380
L109585238 82882380
L110061428 82882380
" />
<path d="M110823333 83358571
L110490000 83358571
" />
<path d="M110490000 83882380
L110490000 82882380
L110966190 82882380
" />
<path d="M111490000 82882380
L111490000 83120476
" />
<path d="M111251904 83025238
L111490000 83120476
L111728095 83025238
" />
<path d="M111347142 83310952
L111490000 83120476
L111632857 83310952
" />
<path d="M112251904 82882380
L112251904 83120476
" />
<path d="M112013809 83025238
L112251904 83120476
L112490000 83025238
" />
<path d="M112109047 83310952
L112251904 83120476
L112394761 83310952
" />
</g><text x="79990000.000000" y="61750000.000000"
textLength="5385476.000000" font-size="1333333.000000" lengthAdjust="spacingAndGlyphs"
text-anchor="middle" opacity="0">C0-N1</text>
<g class="stroked-text"><desc>C0-N1</desc>
<path d="M78204285 61607142
L78156666 61654761
L78013809 61702380
L77918571 61702380
L77775714 61654761
L77680476 61559523
L77632857 61464285
L77585238 61273809
L77585238 61130952
L77632857 60940476
L77680476 60845238
L77775714 60750000
L77918571 60702380
L78013809 60702380
L78156666 60750000
L78204285 60797619
" />
<path d="M78823333 60702380
L78918571 60702380
L79013809 60750000
L79061428 60797619
L79109047 60892857
L79156666 61083333
L79156666 61321428
L79109047 61511904
L79061428 61607142
L79013809 61654761
L78918571 61702380
L78823333 61702380
L78728095 61654761
L78680476 61607142
L78632857 61511904
L78585238 61321428
L78585238 61083333
L78632857 60892857
L78680476 60797619
L78728095 60750000
L78823333 60702380
" />
<path d="M79585238 61321428
L80347142 61321428
" />
<path d="M80823333 61702380
L80823333 60702380
L81394761 61702380
L81394761 60702380
" />
<path d="M82394761 61702380
L81823333 61702380
" />
<path d="M82109047 61702380
L82109047 60702380
L82013809 60845238
L81918571 60940476
L81823333 60988095
" />
</g><text x="93960000.000000" y="61750000.000000"
textLength="5385476.000000" font-size="1333333.000000" lengthAdjust="spacingAndGlyphs"
text-anchor="middle" opacity="0">C2-N1</text>
<g class="stroked-text"><desc>C2-N1</desc>
<path d="M92174285 61607142
L92126666 61654761
L91983809 61702380
L91888571 61702380
L91745714 61654761
L91650476 61559523
L91602857 61464285
L91555238 61273809
L91555238 61130952
L91602857 60940476
L91650476 60845238
L91745714 60750000
L91888571 60702380
L91983809 60702380
L92126666 60750000
L92174285 60797619
" />
<path d="M92555238 60797619
L92602857 60750000
L92698095 60702380
L92936190 60702380
L93031428 60750000
L93079047 60797619
L93126666 60892857
L93126666 60988095
L93079047 61130952
L92507619 61702380
L93126666 61702380
" />
<path d="M93555238 61321428
L94317142 61321428
" />
<path d="M94793333 61702380
L94793333 60702380
L95364761 61702380
L95364761 60702380
" />
<path d="M96364761 61702380
L95793333 61702380
" />
<path d="M96079047 61702380
L96079047 60702380
L95983809 60845238
L95888571 60940476
L95793333 60988095
" />
</g><g transform="rotate(-90.000000 67055000.000000 54610000.000000)">
<text x="67055000.000000" y="55110000.000000"
textLength="2147381.000000" font-size="1333333.000000" lengthAdjust="spacingAndGlyphs"
text-anchor="middle" opacity="0">D2</text>
</g>
<g class="stroked-text"><desc>D2</desc>
<path d="M67507380 55348095
L66507380 55348095
L66507380 55110000
L66555000 54967142
L66650238 54871904
L66745476 54824285
L66935952 54776666
L67078809 54776666
L67269285 54824285
L67364523 54871904
L67459761 54967142
L67507380 55110000
L67507380 55348095
" />
<path d="M66602619 54395714
L66555000 54348095
L66507380 54252857
L66507380 54014761
L66555000 53919523
L66602619 53871904
L66697857 53824285
L66793095 53824285
L66935952 53871904
L67507380 54443333
L67507380 53824285
" />
</g><g transform="rotate(-90.000000 67425000.000000 59690000.000000)">
<text x="67425000.000000" y="60190000.000000"
textLength="1195000.000000" font-size="1333333.000000" lengthAdjust="spacingAndGlyphs"
text-anchor="middle" opacity="0">K</text>
</g>
<g class="stroked-text"><desc>K</desc>
<path d="M67877380 59951904
L66877380 59951904
" />
<path d="M67877380 59380476
L67305952 59809047
" />
<path d="M66877380 59380476
L67448809 59951904
" />
</g><g transform="rotate(-90.000000 100160000.000000 73660000.000000)">
<text x="100160000.000000" y="74160000.000000"
textLength="2147381.000000" font-size="1333333.000000" lengthAdjust="spacingAndGlyphs"
text-anchor="middle" opacity="0">R3</text>
</g>
<g class="stroked-text"><desc>R3</desc>
<path d="M100612380 73826666
L100136190 74160000
" />
<path d="M100612380 74398095
L99612380 74398095
L99612380 74017142
L99660000 73921904
L99707619 73874285
L99802857 73826666
L99945714 73826666
L100040952 73874285
L100088571 73921904
L100136190 74017142
L100136190 74398095
" />
<path d="M99612380 73493333
L99612380 72874285
L99993333 73207619
L99993333 73064761
L100040952 72969523
L100088571 72921904
L100183809 72874285
L100421904 72874285
L100517142 72921904
L100564761 72969523
L100612380 73064761
L100612380 73350476
L100564761 73445714
L100517142 73493333
" />
</g><text x="80020000.000000" y="71840000.000000"
textLength="2195000.000000" font-size="1333333.000000" lengthAdjust="spacingAndGlyphs"
text-anchor="middle" opacity="0">U1</text>
<g class="stroked-text"><desc>U1</desc>
<path d="M79258095 70792380
L79258095 71601904
L79305714 71697142
L79353333 71744761
L79448571 71792380
L79639047 71792380
L79734285 71744761
L79781904 71697142
L79829523 71601904
L79829523 70792380
" />
<path d="M80829523 71792380
L80258095 71792380
" />
<path d="M80543809 71792380
L80543809 70792380
L80448571 70935238
L80353333 71030476
L80258095 71078095
" />
</g><g transform="rotate(-90.000000 55980000.000000 82417677.000000)">
<text x="55980000.000000" y="82917677.000000"
textLength="2147381.000000" font-size="1333333.000000" lengthAdjust="spacingAndGlyphs"
text-anchor="middle" opacity="0">C3</text>
</g>
<g class="stroked-text"><desc>C3</desc>
<path d="M56337142 82584343
L56384761 82631962
L56432380 82774819
L56432380 82870057
L56384761 83012915
L56289523 83108153
L56194285 83155772
L56003809 83203391
L55860952 83203391
L55670476 83155772
L55575238 83108153
L55480000 83012915
L55432380 82870057
L55432380 82774819
L55480000 82631962
L55527619 82584343
" />
<path d="M55432380 82251010
L55432380 81631962
L55813333 81965296
L55813333 81822438
L55860952 81727200
L55908571 81679581
L56003809 81631962
L56241904 81631962
L56337142 81679581
L56384761 81727200
L56432380 81822438
L56432380 82108153
L56384761 82203391
L56337142 82251010
" />
</g><g transform="rotate(-90.000000 98900000.000000 82550000.000000)">
<text x="98900000.000000" y="83050000.000000"
textLength="3004524.000000" font-size="1333333.000000" lengthAdjust="spacingAndGlyphs"
text-anchor="middle" opacity="0">RV0</text>
</g>
<g class="stroked-text"><desc>RV0</desc>
<path d="M99352380 83145238
L98876190 83478571
" />
<path d="M99352380 83716666
L98352380 83716666
L98352380 83335714
L98400000 83240476
L98447619 83192857
L98542857 83145238
L98685714 83145238
L98780952 83192857
L98828571 83240476
L98876190 83335714
L98876190 83716666
" />
<path d="M98352380 82859523
L99352380 82526190
L98352380 82192857
" />
<path d="M98352380 81669047
L98352380 81573809
L98400000 81478571
L98447619 81430952
L98542857 81383333
L98733333 81335714
L98971428 81335714
L99161904 81383333
L99257142 81430952
L99304761 81478571
L99352380 81573809
L99352380 81669047
L99304761 81764285
L99257142 81811904
L99161904 81859523
L98971428 81907142
L98733333 81907142
L98542857 81859523
L98447619 81811904
L98400000 81764285
L98352380 81669047
" />
</g><text x="59385000.000000" y="47200000.000000"
textLength="2147381.000000" font-size="1333333.000000" lengthAdjust="spacingAndGlyphs"
text-anchor="middle" opacity="0">C0</text>
<g class="stroked-text"><desc>C0</desc>
<path d="M59218333 47057142
L59170714 47104761
L59027857 47152380
L58932619 47152380
L58789761 47104761
L58694523 47009523
L58646904 46914285
L58599285 46723809
L58599285 46580952
L58646904 46390476
L58694523 46295238
L58789761 46200000
L58932619 46152380
L59027857 46152380
L59170714 46200000
L59218333 46247619
" />
<path d="M59837380 46152380
L59932619 46152380
L60027857 46200000
L60075476 46247619
L60123095 46342857
L60170714 46533333
L60170714 46771428
L60123095 46961904
L60075476 47057142
L60027857 47104761
L59932619 47152380
L59837380 47152380
L59742142 47104761
L59694523 47057142
L59646904 46961904
L59599285 46771428
L59599285 46533333
L59646904 46342857
L59694523 46247619
L59742142 46200000
L59837380 46152380
" />
</g><text x="80030000.000000" y="72600000.000000"
textLength="5337857.000000" font-size="1333333.000000" lengthAdjust="spacingAndGlyphs"
text-anchor="middle" opacity="0">C1-P1</text>
<g class="stroked-text"><desc>C1-P1</desc>
<path d="M78268095 72457142
L78220476 72504761
L78077619 72552380
L77982380 72552380
L77839523 72504761
L77744285 72409523
L77696666 72314285
L77649047 72123809
L77649047 71980952
L77696666 71790476
L77744285 71695238
L77839523 71600000
L77982380 71552380
L78077619 71552380
L78220476 71600000
L78268095 71647619
" />
<path d="M79220476 72552380
L78649047 72552380
" />
<path d="M78934761 72552380
L78934761 71552380
L78839523 71695238
L78744285 71790476
L78649047 71838095
" />
<path d="M79649047 72171428
L80410952 72171428
" />
<path d="M80887142 72552380
L80887142 71552380
L81268095 71552380
L81363333 71600000
L81410952 71647619
L81458571 71742857
L81458571 71885714
L81410952 71980952
L81363333 72028571
L81268095 72076190
L80887142 72076190
" />
<path d="M82410952 72552380
L81839523 72552380
" />
<path d="M82125238 72552380
L82125238 71552380
L82030000 71695238
L81934761 71790476
L81839523 71838095
" />
</g><text x="110490000.000000" y="40750000.000000"
textLength="4480714.000000" font-size="1333333.000000" lengthAdjust="spacingAndGlyphs"
text-anchor="middle" opacity="0">REF**</text>
<g class="stroked-text"><desc>REF**</desc>
<path d="M109156666 40702380
L108823333 40226190
" />
<path d="M108585238 40702380
L108585238 39702380
L108966190 39702380
L109061428 39750000
L109109047 39797619
L109156666 39892857
L109156666 40035714
L109109047 40130952
L109061428 40178571
L108966190 40226190
L108585238 40226190
" />
<path d="M109585238 40178571
L109918571 40178571
" />
<path d="M110061428 40702380
L109585238 40702380
L109585238 39702380
L110061428 39702380
" />
<path d="M110823333 40178571
L110490000 40178571
" />
<path d="M110490000 40702380
L110490000 39702380
L110966190 39702380
" />
<path d="M111490000 39702380
L111490000 39940476
" />
<path d="M111251904 39845238
L111490000 39940476
L111728095 39845238
" />
<path d="M111347142 40130952
L111490000 39940476
L111632857 40130952
" />
<path d="M112251904 39702380
L112251904 39940476
" />
<path d="M112013809 39845238
L112251904 39940476
L112490000 39845238
" />
<path d="M112109047 40130952
L112251904 39940476
L112394761 40130952
" />
</g><text x="48260000.000000" y="40750000.000000"
textLength="4480714.000000" font-size="1333333.000000" lengthAdjust="spacingAndGlyphs"
text-anchor="middle" opacity="0">REF**</text>
<g class="stroked-text"><desc>REF**</desc>
<path d="M46926666 40702380
L46593333 40226190
" />
<path d="M46355238 40702380
L46355238 39702380
L46736190 39702380
L46831428 39750000
L46879047 39797619
L46926666 39892857
L46926666 40035714
L46879047 40130952
L46831428 40178571
L46736190 40226190
L46355238 40226190
" />
<path d="M47355238 40178571
L47688571 40178571
" />
<path d="M47831428 40702380
L47355238 40702380
L47355238 39702380
L47831428 39702380
" />
<path d="M48593333 40178571
L48260000 40178571
" />
<path d="M48260000 40702380
L48260000 39702380
L48736190 39702380
" />
<path d="M49260000 39702380
L49260000 39940476
" />
<path d="M49021904 39845238
L49260000 39940476
L49498095 39845238
" />
<path d="M49117142 40130952
L49260000 39940476
L49402857 40130952
" />
<path d="M50021904 39702380
L50021904 39940476
" />
<path d="M49783809 39845238
L50021904 39940476
L50260000 39845238
" />
<path d="M49879047 40130952
L50021904 39940476
L50164761 40130952
" />
</g><g transform="rotate(-90.000000 43055000.000000 75155000.000000)">
<text x="43055000.000000" y="75655000.000000"
textLength="4671190.000000" font-size="1333333.000000" lengthAdjust="spacingAndGlyphs"
text-anchor="middle" opacity="0">J-IN1</text>
</g>
<g class="stroked-text"><desc>J-IN1</desc>
<path d="M42507380 76869285
L43221666 76869285
L43364523 76916904
L43459761 77012142
L43507380 77155000
L43507380 77250238
" />
<path d="M43126428 76393095
L43126428 75631190
" />
<path d="M43507380 75155000
L42507380 75155000
" />
<path d="M43507380 74678809
L42507380 74678809
L43507380 74107380
L42507380 74107380
" />
<path d="M43507380 73107380
L43507380 73678809
" />
<path d="M43507380 73393095
L42507380 73393095
L42650238 73488333
L42745476 73583571
L42793095 73678809
" />
</g></g>
<g style="fill:#000000; fill-opacity:0.0; 
stroke:#000000; stroke-width:120000.000000; stroke-opacity:1; 
stroke-linecap:round; stroke-linejoin:round;">
<path d="M81650000 49380000
L81650000 49315000
" />
<path d="M81650000 47140000
L78410000 47140000
" />
<path d="M78410000 47205000
L78410000 47140000
" />
<path d="M81650000 49380000
L78410000 49380000
" />
<path d="M78410000 49380000
L78410000 49315000
" />
<path d="M81650000 47205000
L81650000 47140000
" />
<path d="M72490000 72930000
L69750000 72930000
" />
<path d="M69750000 72930000
L69750000 79470000
" />
<path d="M71120000 72160000
L71120000 72930000
" />
<path d="M69750000 79470000
L72490000 79470000
" />
<path d="M72490000 79470000
L72490000 72930000
" />
<path d="M71120000 80240000
L71120000 79470000
" />
<path d="M111840000.000000 57230000.000000 A5270000.000000 5270000.000000 0.0 0 0 108110799.007948 52190273.974003" />
<path d="M105564000.172439 62403999.113124 A5270892.000000 5270892.000000 0.0 0 0 107844880.904539 62344389.617042" />
<path d="M110231000.362892 61021000.375778 A5270162.000000 5270162.000000 0.0 0 0 111839358.403454 57137969.992954" />
<path d="M105296000.227270 52116000.912291 A5270300.000000 5270300.000000 0.0 0 0 103181526.186424 61266620.777917" />
<path d="M66555000 44730000
L67782000 44730000
" />
<path d="M66555000 44490000
L67740000 44490000
" />
<path d="M66555000 44089000
L67604000 44089000
" />
<path d="M64515000 43249000
L66915000 43249000
" />
<path d="M66555000 44249000
L67669000 44249000
" />
<path d="M66555000 44570000
L67757000 44570000
" />
<path d="M63747000 44290000
L64875000 44290000
" />
<path d="M64364000 43369000
L67066000 43369000
" />
<path d="M63721000 44370000
L64875000 44370000
" />
<path d="M64319000 43409000
L64875000 43409000
" />
<path d="M66555000 44049000
L67585000 44049000
" />
<path d="M66555000 43609000
L67302000 43609000
" />
<path d="M63791000 44169000
L64875000 44169000
" />
<path d="M66555000 44009000
L67566000 44009000
" />
<path d="M63638000 44850000
L64875000 44850000
" />
<path d="M63636000 44890000
L64875000 44890000
" />
<path d="M63885000 43969000
L64875000 43969000
" />
<path d="M64411000 43329000
L67019000 43329000
" />
<path d="M63907000 43929000
L64875000 43929000
" />
<path d="M66555000 43449000
L67153000 43449000
" />
<path d="M65345000 42889000
L66085000 42889000
" />
<path d="M64947000 43009000
L66483000 43009000
" />
<path d="M64035000 43729000
L64875000 43729000
" />
<path d="M63761000 44249000
L64875000 44249000
" />
<path d="M64856000 43049000
L66574000 43049000
" />
<path d="M64163000 43569000
L64875000 43569000
" />
<path d="M64320000 47039801
L64720000 47039801
" />
<path d="M64065000 43689000
L64875000 43689000
" />
<path d="M66555000 43769000
L67423000 43769000
" />
<path d="M66555000 43729000
L67395000 43729000
" />
<path d="M66555000 44810000
L67789000 44810000
" />
<path d="M66555000 44610000
L67765000 44610000
" />
<path d="M64702000 43129000
L66728000 43129000
" />
<path d="M66555000 44690000
L67777000 44690000
" />
<path d="M63673000 44570000
L64875000 44570000
" />
<path d="M66555000 43529000
L67231000 43529000
" />
<path d="M64461000 43289000
L66969000 43289000
" />
<path d="M63733000 44330000
L64875000 44330000
" />
<path d="M63635000 44930000
L64875000 44930000
" />
<path d="M63665000 44610000
L64875000 44610000
" />
<path d="M63710000 44410000
L64875000 44410000
" />
<path d="M66555000 44890000
L67794000 44890000
" />
<path d="M66555000 43809000
L67450000 43809000
" />
<path d="M63644000 44770000
L64875000 44770000
" />
<path d="M66555000 43409000
L67111000 43409000
" />
<path d="M66555000 43689000
L67365000 43689000
" />
<path d="M66555000 44330000
L67697000 44330000
" />
<path d="M63635000 44970000
L64875000 44970000
" />
<path d="M66555000 44930000
L67795000 44930000
" />
<path d="M66555000 43929000
L67523000 43929000
" />
<path d="M63699000 44450000
L64875000 44450000
" />
<path d="M65051000 42969000
L66379000 42969000
" />
<path d="M64199000 43529000
L64875000 43529000
" />
<path d="M66555000 44410000
L67720000 44410000
" />
<path d="M66555000 44370000
L67709000 44370000
" />
<path d="M64775000 43089000
L66655000 43089000
" />
<path d="M66555000 44450000
L67731000 44450000
" />
<path d="M64237000 43489000
L64875000 43489000
" />
<path d="M63955000 43849000
L64875000 43849000
" />
<path d="M63980000 43809000
L64875000 43809000
" />
<path d="M66555000 43569000
L67267000 43569000
" />
<path d="M65178000 42929000
L66252000 42929000
" />
<path d="M64635000 43169000
L66795000 43169000
" />
<path d="M66555000 43649000
L67334000 43649000
" />
<path d="M66555000 43889000
L67500000 43889000
" />
<path d="M63653000 44690000
L64875000 44690000
" />
<path d="M63845000 44049000
L64875000 44049000
" />
<path d="M64128000 43609000
L64875000 43609000
" />
<path d="M63930000 43889000
L64875000 43889000
" />
<path d="M66555000 44129000
L67622000 44129000
" />
<path d="M66555000 44650000
L67771000 44650000
" />
<path d="M63690000 44490000
L64875000 44490000
" />
<path d="M63648000 44730000
L64875000 44730000
" />
<path d="M66555000 43969000
L67545000 43969000
" />
<path d="M66555000 44770000
L67786000 44770000
" />
<path d="M66555000 44209000
L67655000 44209000
" />
<path d="M66555000 43489000
L67193000 43489000
" />
<path d="M64007000 43769000
L64875000 43769000
" />
<path d="M63681000 44530000
L64875000 44530000
" />
<path d="M66555000 44530000
L67749000 44530000
" />
<path d="M66555000 44850000
L67792000 44850000
" />
<path d="M66555000 44290000
L67683000 44290000
" />
<path d="M63659000 44650000
L64875000 44650000
" />
<path d="M64520000 47239801
L64520000 46839801
" />
<path d="M63775000 44209000
L64875000 44209000
" />
<path d="M66555000 43849000
L67475000 43849000
" />
<path d="M63864000 44009000
L64875000 44009000
" />
<path d="M63641000 44810000
L64875000 44810000
" />
<path d="M63808000 44129000
L64875000 44129000
" />
<path d="M66555000 44169000
L67639000 44169000
" />
<path d="M64573000 43209000
L66857000 43209000
" />
<path d="M64096000 43649000
L64875000 43649000
" />
<path d="M64277000 43449000
L64875000 43449000
" />
<path d="M63826000 44089000
L64875000 44089000
" />
<path d="M66555000 44970000
L67795000 44970000
" />
<circle cx="65715000.000000" cy="44970000.000000" r="2120000.000000" /> 
<path d="M74770000 50690000
L74770000 61090000
" />
<path d="M82270000 50750000
L81020000 50750000
" />
<path d="M85270000 61090000
L85270000 50690000
" />
<path d="M82270000 61030000
L82270000 50750000
" />
<path d="M77770000 61030000
L82270000 61030000
" />
<path d="M74770000 61090000
L85270000 61090000
" />
<path d="M77770000 50750000
L77770000 61030000
" />
<path d="M79020000 50750000
L77770000 50750000
" />
<path d="M85270000 50690000
L74770000 50690000
" />
<path d="M79020000.000000 50750000.000000 A1000000.000000 1000000.000000 0.0 0 0 81020000.000000 50750000.000000" />
<path d="M95620000 47140000
L92380000 47140000
" />
<path d="M95620000 49380000
L95620000 49315000
" />
<path d="M95620000 47205000
L95620000 47140000
" />
<path d="M92380000 49380000
L92380000 49315000
" />
<path d="M95620000 49380000
L92380000 49380000
" />
<path d="M92380000 47205000
L92380000 47140000
" />
<path d="M57365000 46950000
L62006000 46950000
" />
<path d="M57365000 53920000
L58875000 53920000
" />
<path d="M57365000 57190000
L62006000 57190000
" />
<path d="M58875000 57190000
L58875000 46950000
" />
<path d="M57365000 57190000
L57365000 46950000
" />
<path d="M57365000 50219000
L58875000 50219000
" />
<path d="M62006000 57190000
L62006000 46950000
" />
<path d="M96240000 61030000
L96240000 50750000
" />
<path d="M91740000 61030000
L96240000 61030000
" />
<path d="M96240000 50750000
L94990000 50750000
" />
<path d="M88740000 61090000
L99240000 61090000
" />
<path d="M88740000 50690000
L88740000 61090000
" />
<path d="M99240000 50690000
L88740000 50690000
" />
<path d="M91740000 50750000
L91740000 61030000
" />
<path d="M99240000 61090000
L99240000 50690000
" />
<path d="M92990000 50750000
L91740000 50750000
" />
<path d="M92990000.000000 50750000.000000 A1000000.000000 1000000.000000 0.0 0 0 94990000.000000 50750000.000000" />
<path d="M67185000 51890000
L64245000 51890000
" />
<path d="M64245000 56550000
L67185000 56550000
" />
<path d="M64245000 51890000
L64245000 57330000
" />
<path d="M65715000 58350000
L65715000 57330000
" />
<path d="M64245000 56310000
L67185000 56310000
" />
<path d="M65715000 50870000
L65715000 51890000
" />
<path d="M67185000 57330000
L67185000 51890000
" />
<path d="M64245000 56430000
L67185000 56430000
" />
<path d="M64245000 57330000
L67185000 57330000
" />
<path d="M58710000 67306677
L60989000 67306677
" />
<path d="M57609000 68866677
L60989000 68866677
" />
<path d="M60021000 66386677
L64439000 66386677
" />
<path d="M57883000 68346677
L60989000 68346677
" />
<path d="M63471000 67666677
L66088000 67666677
" />
<path d="M57646000 68786677
L60989000 68786677
" />
<path d="M63471000 68066677
L66396000 68066677
" />
<path d="M63471000 69226677
L66998000 69226677
" />
<path d="M61000000 66026677
L63460000 66026677
" />
<path d="M63471000 69026677
L66920000 69026677
" />
<path d="M58551000 67466677
L60989000 67466677
" />
<path d="M61168000 65986677
L63292000 65986677
" />
<path d="M63471000 69266677
L67013000 69266677
" />
<path d="M58092000 68026677
L60989000 68026677
" />
<path d="M63471000 68506677
L66670000 68506677
" />
<path d="M60384000 66226677
L64076000 66226677
" />
<path d="M57591000 68906677
L60989000 68906677
" />
<path d="M58929000 67106677
L65531000 67106677
" />
<path d="M61631000 65906677
L62829000 65906677
" />
<path d="M63471000 68866677
L66851000 68866677
" />
<path d="M58210000 67866677
L60989000 67866677
" />
<path d="M63471000 67386677
L65831000 67386677
" />
<path d="M63471000 68186677
L66477000 68186677
" />
<path d="M60720000 66106677
L63740000 66106677
" />
<path d="M63471000 69666677
L67137000 69666677
" />
<path d="M63471000 69546677
L67104000 69546677
" />
<path d="M57180000 70427677
L67280000 70427677
" />
<path d="M63471000 67426677
L65870000 67426677
" />
<path d="M63471000 67506677
L65946000 67506677
" />
<path d="M63471000 68346677
L66577000 68346677
" />
<path d="M57790000 68506677
L60989000 68506677
" />
<path d="M57666000 68746677
L60989000 68746677
" />
<path d="M63471000 67706677
L66122000 67706677
" />
<path d="M61368000 65946677
L63092000 65946677
" />
<path d="M63471000 67626677
L66054000 67626677
" />
<path d="M57248000 69986677
L67212000 69986677
" />
<path d="M57356000 69546677
L60989000 69546677
" />
<path d="M63471000 68946677
L66887000 68946677
" />
<path d="M57368000 69506677
L60989000 69506677
" />
<path d="M57476000 69186677
L60989000 69186677
" />
<path d="M63471000 68706677
L66775000 68706677
" />
<path d="M63471000 68266677
L66528000 68266677
" />
<path d="M63471000 67466677
L65909000 67466677
" />
<path d="M57957000 68226677
L60989000 68226677
" />
<path d="M59941000 66426677
L64519000 66426677
" />
<path d="M63471000 69306677
L67027000 69306677
" />
<path d="M57150000 70947677
L67310000 70947677
" />
<path d="M63471000 67746677
L66155000 67746677
" />
<path d="M59791000 66506677
L64669000 66506677
" />
<path d="M57393000 69426677
L60989000 69426677
" />
<path d="M58064000 68066677
L60989000 68066677
" />
<path d="M60193000 66306677
L64267000 66306677
" />
<path d="M57813000 68466677
L60989000 68466677
" />
<path d="M57233000 70066677
L67227000 70066677
" />
<path d="M58752000 67266677
L60989000 67266677
" />
<path d="M57983000 68186677
L60989000 68186677
" />
<path d="M58180000 67906677
L60989000 67906677
" />
<path d="M63471000 69066677
L66937000 69066677
" />
<path d="M59285000 66826677
L65175000 66826677
" />
<path d="M59176000 66906677
L65284000 66906677
" />
<path d="M59460000 66706677
L65000000 66706677
" />
<path d="M57540000 69026677
L60989000 69026677
" />
<path d="M63471000 68786677
L66814000 68786677
" />
<path d="M58338000 67706677
L60989000 67706677
" />
<path d="M63471000 67986677
L66340000 67986677
" />
<path d="M57419000 69346677
L60989000 69346677
" />
<path d="M59585000 66626677
L64875000 66626677
" />
<path d="M63471000 67866677
L66250000 67866677
" />
<path d="M57219000 70146677
L67241000 70146677
" />
<path d="M57685000 68706677
L60989000 68706677
" />
<path d="M58009000 68146677
L60989000 68146677
" />
<path d="M57185000 70387677
L67275000 70387677
" />
<path d="M57152000 70827677
L67308000 70827677
" />
<path d="M57195000 70307677
L67265000 70307677
" />
<path d="M57345000 69586677
L60989000 69586677
" />
<path d="M57433000 69306677
L60989000 69306677
" />
<path d="M63471000 69586677
L67115000 69586677
" />
<path d="M57627000 68826677
L60989000 68826677
" />
<path d="M57705000 68666677
L60989000 68666677
" />
<path d="M57256000 69946677
L67204000 69946677
" />
<path d="M60286000 66266677
L64174000 66266677
" />
<path d="M63471000 67786677
L66187000 67786677
" />
<path d="M63471000 68906677
L66869000 68906677
" />
<path d="M58590000 67426677
L60989000 67426677
" />
<path d="M57859000 68386677
L60989000 68386677
" />
<path d="M59651000 66586677
L64809000 66586677
" />
<path d="M58305000 67746677
L60989000 67746677
" />
<path d="M63471000 68146677
L66451000 68146677
" />
<path d="M58514000 67506677
L60989000 67506677
" />
<path d="M63471000 68386677
L66601000 68386677
" />
<path d="M59074000 66986677
L65386000 66986677
" />
<path d="M59521000 66666677
L64939000 66666677
" />
<path d="M57932000 68266677
L60989000 68266677
" />
<path d="M63471000 69466677
L67080000 69466677
" />
<path d="M57768000 68546677
L60989000 68546677
" />
<path d="M57165000 70587677
L67295000 70587677
" />
<path d="M63471000 67266677
L65708000 67266677
" />
<path d="M58036000 68106677
L60989000 68106677
" />
<path d="M57492000 69146677
L60989000 69146677
" />
<path d="M57190000 70347677
L67270000 70347677
" />
<path d="M57153000 70787677
L67307000 70787677
" />
<path d="M63471000 67946677
L66310000 67946677
" />
<path d="M60852000 66066677
L63608000 66066677
" />
<path d="M57302000 69746677
L67158000 69746677
" />
<path d="M57226000 70106677
L67234000 70106677
" />
<path d="M57447000 69266677
L60989000 69266677
" />
<path d="M63471000 67906677
L66280000 67906677
" />
<path d="M60600000 66146677
L63860000 66146677
" />
<path d="M63471000 69626677
L67127000 69626677
" />
<path d="M57747000 68586677
L60989000 68586677
" />
<path d="M57176000 70467677
L67284000 70467677
" />
<path d="M58477000 67546677
L60989000 67546677
" />
<path d="M57312000 69706677
L60989000 69706677
" />
<path d="M57380000 69466677
L60989000 69466677
" />
<path d="M63471000 69146677
L66968000 69146677
" />
<path d="M57523000 69066677
L60989000 69066677
" />
<path d="M58794000 67226677
L65666000 67226677
" />
<path d="M63471000 68666677
L66755000 68666677
" />
<path d="M63471000 67306677
L65750000 67306677
" />
<path d="M57212000 70186677
L67248000 70186677
" />
<path d="M58855000 75967323
L59855000 75967323
" />
<path d="M63471000 68466677
L66647000 68466677
" />
<path d="M63471000 68826677
L66833000 68826677
" />
<path d="M57157000 70707677
L67303000 70707677
" />
<path d="M63471000 68626677
L66734000 68626677
" />
<path d="M63471000 67586677
L66019000 67586677
" />
<path d="M58241000 67826677
L60989000 67826677
" />
<path d="M58629000 67386677
L60989000 67386677
" />
<path d="M63471000 68226677
L66503000 68226677
" />
<path d="M57160000 70667677
L67300000 70667677
" />
<path d="M63471000 69426677
L67067000 69426677
" />
<path d="M57168000 70547677
L67292000 70547677
" />
<path d="M57333000 69626677
L60989000 69626677
" />
<path d="M58150000 67946677
L60989000 67946677
" />
<path d="M57150000 70987677
L67310000 70987677
" />
<path d="M57323000 69666677
L60989000 69666677
" />
<path d="M58883000 67146677
L65577000 67146677
" />
<path d="M57265000 69906677
L67195000 69906677
" />
<path d="M58838000 67186677
L65622000 67186677
" />
<path d="M57172000 70507677
L67288000 70507677
" />
<path d="M57283000 69826677
L67177000 69826677
" />
<path d="M63471000 69706677
L67148000 69706677
" />
<path d="M57206000 70226677
L67254000 70226677
" />
<path d="M57462000 69226677
L60989000 69226677
" />
<path d="M59720000 66546677
L64740000 66546677
" />
<path d="M57406000 69386677
L60989000 69386677
" />
<path d="M57155000 70747677
L67305000 70747677
" />
<path d="M63471000 69506677
L67092000 69506677
" />
<path d="M57556000 68986677
L60989000 68986677
" />
<path d="M58669000 67346677
L60989000 67346677
" />
<path d="M63471000 68426677
L66625000 68426677
" />
<path d="M58406000 67626677
L60989000 67626677
" />
<path d="M63471000 68586677
L66713000 68586677
" />
<path d="M59341000 66786677
L65119000 66786677
" />
<path d="M63471000 68106677
L66424000 68106677
" />
<path d="M57726000 68626677
L60989000 68626677
" />
<path d="M57507000 69106677
L60989000 69106677
" />
<path d="M63471000 69186677
L66984000 69186677
" />
<path d="M58441000 67586677
L60989000 67586677
" />
<path d="M58120000 67986677
L60989000 67986677
" />
<path d="M63471000 69386677
L67054000 69386677
" />
<path d="M59865000 66466677
L64595000 66466677
" />
<path d="M57151000 70867677
L67309000 70867677
" />
<path d="M57162000 70627677
L67298000 70627677
" />
<path d="M57274000 69866677
L67186000 69866677
" />
<path d="M63471000 68986677
L66904000 68986677
" />
<path d="M57573000 68946677
L60989000 68946677
" />
<path d="M60488000 66186677
L63972000 66186677
" />
<path d="M63471000 69346677
L67041000 69346677
" />
<path d="M57907000 68306677
L60989000 68306677
" />
<path d="M57240000 70026677
L67220000 70026677
" />
<path d="M59400000 66746677
L65060000 66746677
" />
<path d="M63471000 69106677
L66953000 69106677
" />
<path d="M57150000 70907677
L67310000 70907677
" />
<path d="M59355000 76467323
L59355000 75467323
" />
<path d="M58273000 67786677
L60989000 67786677
" />
<path d="M59024000 67026677
L65436000 67026677
" />
<path d="M63471000 67346677
L65791000 67346677
" />
<path d="M59124000 66946677
L65336000 66946677
" />
<path d="M63471000 67826677
L66219000 67826677
" />
<path d="M58372000 67666677
L60989000 67666677
" />
<path d="M57835000 68426677
L60989000 68426677
" />
<path d="M57292000 69786677
L67168000 69786677
" />
<path d="M57200000 70266677
L67260000 70266677
" />
<path d="M60105000 66346677
L64355000 66346677
" />
<path d="M63471000 68306677
L66553000 68306677
" />
<path d="M63471000 68746677
L66794000 68746677
" />
<path d="M63471000 67546677
L65983000 67546677
" />
<path d="M58976000 67066677
L65484000 67066677
" />
<path d="M59230000 66866677
L65230000 66866677
" />
<path d="M63471000 68546677
L66692000 68546677
" />
<path d="M63471000 68026677
L66368000 68026677
" />
<circle cx="62230000.000000" cy="70987677.000000" r="5120000.000000" /> 
<path d="M61005000 58570000
L57765000 58570000
" />
<path d="M57765000 58635000
L57765000 58570000
" />
<path d="M61005000 60810000
L61005000 60745000
" />
<path d="M57765000 60810000
L57765000 60745000
" />
<path d="M61005000 60810000
L57765000 60810000
" />
<path d="M61005000 58635000
L61005000 58570000
" />
<path d="M48246000 56100000
L48292000 56147000
" />
<path d="M44054000 49695000
L53975000 49695000
" />
<path d="M53975000 65055000
L53975000 49695000
" />
<path d="M48040000 56305000
L48076000 56340000
" />
<path d="M44054000 65055000
L53975000 65055000
" />
<path d="M53415000 65055000
L53415000 49695000
" />
<path d="M44054000 65055000
L44054000 49695000
" />
<path d="M50338000 53522000
L50384000 53569000
" />
<path d="M53475000 65295000
L54215000 65295000
" />
<path d="M54215000 65295000
L54215000 64795000
" />
<path d="M50554000 53329000
L50589000 53364000
" />
<path d="M48040000 51225000
L48076000 51260000
" />
<path d="M51915000 65055000
L51915000 49695000
" />
<path d="M48246000 51020000
L48292000 51067000
" />
<path d="M47014000 65055000
L47014000 49695000
" />
<path d="M50338000 58602000
L50384000 58649000
" />
<path d="M50554000 58409000
L50589000 58444000
" />
<path d="M50995000.000000 62455000.000000 A1680000.000000 1680000.000000 0.0 0 0 50849756.144465 61771681.935680" />
<path d="M50850000.247038 63139000.110081 A1680501.000000 1680501.000000 0.0 0 0 50995253.095448 62426194.998364" />
<path d="M47780000.215790 61771000.096157 A1680494.000000 1680494.000000 0.0 0 0 47779572.864089 63138042.060461" />
<path d="M48631000.096157 63989999.784210 A1680494.000000 1680494.000000 0.0 0 0 49998042.060461 63990427.135911" />
<path d="M49999000.316196 60919999.290409 A1680501.000000 1680501.000000 0.0 0 0 48631957.859126 60919572.683325" />
<circle cx="49315000.000000" cy="57375000.000000" r="1680000.000000" /> 
<circle cx="49315000.000000" cy="52295000.000000" r="1680000.000000" /> 
<path d="M81610000 86145000
L81610000 86210000
" />
<path d="M78370000 86210000
L81610000 86210000
" />
<path d="M78370000 83970000
L81610000 83970000
" />
<path d="M78370000 86145000
L78370000 86210000
" />
<path d="M81610000 83970000
L81610000 84035000
" />
<path d="M78370000 83970000
L78370000 84035000
" />
<path d="M70370000 67740000
L74220000 67740000
" />
<path d="M74258611.177278 67730122.153762 A2579457.000000 2579457.000000 0.0 1 0 70370000.231092 67739999.797496" />
<path d="M92610000 70390000
L92610000 76930000
" />
<path d="M93980000 77700000
L93980000 76930000
" />
<path d="M95350000 76930000
L95350000 70390000
" />
<path d="M95350000 70390000
L92610000 70390000
" />
<path d="M92610000 76930000
L95350000 76930000
" />
<path d="M93980000 69620000
L93980000 70390000
" />
<path d="M102745000 68275000
L102745000 68775000
" />
<path d="M108714000 77470000
L108668000 77423000
" />
<path d="M106622000 74968000
L106576000 74921000
" />
<path d="M112906000 68515000
L112906000 78795000
" />
<path d="M105045000 68515000
L105045000 78795000
" />
<path d="M108920000 77265000
L108884000 77230000
" />
<path d="M103545000 68515000
L103545000 78795000
" />
<path d="M103485000 68275000
L102745000 68275000
" />
<path d="M102985000 68515000
L102985000 78795000
" />
<path d="M112906000 78795000
L102985000 78795000
" />
<path d="M109946000 68515000
L109946000 78795000
" />
<path d="M112906000 68515000
L102985000 68515000
" />
<path d="M106406000 75161000
L106371000 75126000
" />
<path d="M108328999.903843 69580000.215790 A1680494.000000 1680494.000000 0.0 0 0 106961957.939539 69579572.864089" />
<path d="M109179999.784210 71798999.903843 A1680494.000000 1680494.000000 0.0 0 0 109180427.135911 70431957.939539" />
<path d="M106109999.752962 70430999.889919 A1680501.000000 1680501.000000 0.0 0 0 105964746.904552 71143805.001636" />
<path d="M106960999.683804 72650000.709591 A1680501.000000 1680501.000000 0.0 0 0 108328042.140874 72650427.316675" />
<path d="M105965000.000000 71115000.000000 A1680000.000000 1680000.000000 0.0 0 0 106110243.855535 71798318.064320" />
<circle cx="107645000.000000" cy="76195000.000000" r="1680000.000000" /> 
<path d="M90170000 69620000
L90170000 70390000
" />
<path d="M90170000 77700000
L90170000 76930000
" />
<path d="M91540000 76930000
L91540000 70390000
" />
<path d="M91540000 70390000
L88800000 70390000
" />
<path d="M88800000 76930000
L91540000 76930000
" />
<path d="M88800000 70390000
L88800000 76930000
" />
<path d="M81610000 62380000
L81610000 62445000
" />
<path d="M78370000 64620000
L81610000 64620000
" />
<path d="M78370000 62380000
L78370000 62445000
" />
<path d="M81610000 64555000
L81610000 64620000
" />
<path d="M78370000 64555000
L78370000 64620000
" />
<path d="M78370000 62380000
L81610000 62380000
" />
<path d="M92340000 64620000
L95580000 64620000
" />
<path d="M95580000 62380000
L95580000 62445000
" />
<path d="M92340000 62380000
L95580000 62380000
" />
<path d="M92340000 62380000
L92340000 62445000
" />
<path d="M92340000 64555000
L92340000 64620000
" />
<path d="M95580000 64555000
L95580000 64620000
" />
<path d="M70995000 57330000
L70995000 51890000
" />
<path d="M68055000 56430000
L70995000 56430000
" />
<path d="M68055000 56550000
L70995000 56550000
" />
<path d="M70995000 51890000
L68055000 51890000
" />
<path d="M68055000 51890000
L68055000 57330000
" />
<path d="M68055000 57330000
L70995000 57330000
" />
<path d="M69525000 58350000
L69525000 57330000
" />
<path d="M69525000 50870000
L69525000 51890000
" />
<path d="M68055000 56310000
L70995000 56310000
" />
<path d="M97790000 77700000
L97790000 76930000
" />
<path d="M99160000 70390000
L96420000 70390000
" />
<path d="M99160000 76930000
L99160000 70390000
" />
<path d="M96420000 70390000
L96420000 76930000
" />
<path d="M96420000 76930000
L99160000 76930000
" />
<path d="M97790000 69620000
L97790000 70390000
" />
<path d="M77770000 72340000
L77770000 82620000
" />
<path d="M74770000 82680000
L85270000 82680000
" />
<path d="M82270000 82620000
L82270000 72340000
" />
<path d="M82270000 72340000
L81020000 72340000
" />
<path d="M77770000 82620000
L82270000 82620000
" />
<path d="M85270000 82680000
L85270000 72280000
" />
<path d="M74770000 72280000
L74770000 82680000
" />
<path d="M79020000 72340000
L77770000 72340000
" />
<path d="M85270000 72280000
L74770000 72280000
" />
<path d="M79020000.000000 72340000.000000 A1000000.000000 1000000.000000 0.0 0 0 81020000.000000 72340000.000000" />
<path d="M58273000 79216677
L60989000 79216677
" />
<path d="M60286000 77696677
L64174000 77696677
" />
<path d="M63471000 79936677
L66670000 79936677
" />
<path d="M63471000 78896677
L65909000 78896677
" />
<path d="M63471000 80976677
L67104000 80976677
" />
<path d="M57165000 82017677
L67295000 82017677
" />
<path d="M57883000 79776677
L60989000 79776677
" />
<path d="M57172000 81937677
L67288000 81937677
" />
<path d="M63471000 79976677
L66692000 79976677
" />
<path d="M57368000 80936677
L60989000 80936677
" />
<path d="M63471000 79816677
L66601000 79816677
" />
<path d="M63471000 80136677
L66775000 80136677
" />
<path d="M59176000 78336677
L65284000 78336677
" />
<path d="M63471000 79656677
L66503000 79656677
" />
<path d="M57185000 81817677
L67275000 81817677
" />
<path d="M63471000 79616677
L66477000 79616677
" />
<path d="M57155000 82177677
L67305000 82177677
" />
<path d="M57150000 82377677
L67310000 82377677
" />
<path d="M57162000 82057677
L67298000 82057677
" />
<path d="M59865000 77896677
L64595000 77896677
" />
<path d="M63471000 80456677
L66920000 80456677
" />
<path d="M58036000 79536677
L60989000 79536677
" />
<path d="M63471000 79056677
L66054000 79056677
" />
<path d="M58629000 78816677
L60989000 78816677
" />
<path d="M60720000 77536677
L63740000 77536677
" />
<path d="M61631000 77336677
L62829000 77336677
" />
<path d="M58838000 78616677
L65622000 78616677
" />
<path d="M63471000 78776677
L65791000 78776677
" />
<path d="M57292000 81216677
L67168000 81216677
" />
<path d="M57609000 80296677
L60989000 80296677
" />
<path d="M57302000 81176677
L67158000 81176677
" />
<path d="M59341000 78216677
L65119000 78216677
" />
<path d="M60384000 77656677
L64076000 77656677
" />
<path d="M57333000 81056677
L60989000 81056677
" />
<path d="M58976000 78496677
L65484000 78496677
" />
<path d="M60193000 77736677
L64267000 77736677
" />
<path d="M57835000 79856677
L60989000 79856677
" />
<path d="M61000000 77456677
L63460000 77456677
" />
<path d="M57983000 79616677
L60989000 79616677
" />
<path d="M57393000 80856677
L60989000 80856677
" />
<path d="M59124000 78376677
L65336000 78376677
" />
<path d="M57345000 81016677
L60989000 81016677
" />
<path d="M57323000 81096677
L60989000 81096677
" />
<path d="M57627000 80256677
L60989000 80256677
" />
<path d="M59355000 87897323
L59355000 86897323
" />
<path d="M57219000 81576677
L67241000 81576677
" />
<path d="M57356000 80976677
L60989000 80976677
" />
<path d="M63471000 81096677
L67137000 81096677
" />
<path d="M59024000 78456677
L65436000 78456677
" />
<path d="M57200000 81696677
L67260000 81696677
" />
<path d="M57646000 80216677
L60989000 80216677
" />
<path d="M63471000 80856677
L67067000 80856677
" />
<path d="M63471000 80256677
L66833000 80256677
" />
<path d="M58441000 79016677
L60989000 79016677
" />
<path d="M59460000 78136677
L65000000 78136677
" />
<path d="M60600000 77576677
L63860000 77576677
" />
<path d="M57157000 82137677
L67303000 82137677
" />
<path d="M57747000 80016677
L60989000 80016677
" />
<path d="M63471000 79456677
L66368000 79456677
" />
<path d="M57476000 80616677
L60989000 80616677
" />
<path d="M58092000 79456677
L60989000 79456677
" />
<path d="M57265000 81336677
L67195000 81336677
" />
<path d="M57248000 81416677
L67212000 81416677
" />
<path d="M57447000 80696677
L60989000 80696677
" />
<path d="M60021000 77816677
L64439000 77816677
" />
<path d="M57859000 79816677
L60989000 79816677
" />
<path d="M63471000 80376677
L66887000 80376677
" />
<path d="M63471000 80696677
L67013000 80696677
" />
<path d="M63471000 79736677
L66553000 79736677
" />
<path d="M63471000 78816677
L65831000 78816677
" />
<path d="M57274000 81296677
L67186000 81296677
" />
<path d="M63471000 80896677
L67080000 80896677
" />
<path d="M57212000 81616677
L67248000 81616677
" />
<path d="M57380000 80896677
L60989000 80896677
" />
<path d="M63471000 79696677
L66528000 79696677
" />
<path d="M63471000 80496677
L66937000 80496677
" />
<path d="M57433000 80736677
L60989000 80736677
" />
<path d="M57726000 80056677
L60989000 80056677
" />
<path d="M57153000 82217677
L67307000 82217677
" />
<path d="M63471000 79376677
L66310000 79376677
" />
<path d="M59791000 77936677
L64669000 77936677
" />
<path d="M57283000 81256677
L67177000 81256677
" />
<path d="M58752000 78696677
L60989000 78696677
" />
<path d="M63471000 79416677
L66340000 79416677
" />
<path d="M61368000 77376677
L63092000 77376677
" />
<path d="M63471000 79016677
L66019000 79016677
" />
<path d="M61168000 77416677
L63292000 77416677
" />
<path d="M57462000 80656677
L60989000 80656677
" />
<path d="M58710000 78736677
L60989000 78736677
" />
<path d="M57168000 81977677
L67292000 81977677
" />
<path d="M63471000 80736677
L67027000 80736677
" />
<path d="M57150000 82337677
L67310000 82337677
" />
<path d="M58514000 78936677
L60989000 78936677
" />
<path d="M57813000 79896677
L60989000 79896677
" />
<path d="M60488000 77616677
L63972000 77616677
" />
<path d="M63471000 79296677
L66250000 79296677
" />
<path d="M57685000 80136677
L60989000 80136677
" />
<path d="M63471000 79216677
L66187000 79216677
" />
<path d="M63471000 79136677
L66122000 79136677
" />
<path d="M57540000 80456677
L60989000 80456677
" />
<path d="M58210000 79296677
L60989000 79296677
" />
<path d="M63471000 78696677
L65708000 78696677
" />
<path d="M63471000 80776677
L67041000 80776677
" />
<path d="M57160000 82097677
L67300000 82097677
" />
<path d="M63471000 80656677
L66998000 80656677
" />
<path d="M63471000 80616677
L66984000 80616677
" />
<path d="M63471000 80936677
L67092000 80936677
" />
<path d="M58064000 79496677
L60989000 79496677
" />
<path d="M63471000 78976677
L65983000 78976677
" />
<path d="M63471000 80416677
L66904000 80416677
" />
<path d="M57790000 79936677
L60989000 79936677
" />
<path d="M58406000 79056677
L60989000 79056677
" />
<path d="M60105000 77776677
L64355000 77776677
" />
<path d="M57233000 81496677
L67227000 81496677
" />
<path d="M60852000 77496677
L63608000 77496677
" />
<path d="M63471000 80336677
L66869000 80336677
" />
<path d="M59285000 78256677
L65175000 78256677
" />
<path d="M58883000 78576677
L65577000 78576677
" />
<path d="M57152000 82257677
L67308000 82257677
" />
<path d="M57705000 80096677
L60989000 80096677
" />
<path d="M59720000 77976677
L64740000 77976677
" />
<path d="M63471000 80536677
L66953000 80536677
" />
<path d="M58590000 78856677
L60989000 78856677
" />
<path d="M63471000 78736677
L65750000 78736677
" />
<path d="M57176000 81897677
L67284000 81897677
" />
<path d="M58338000 79136677
L60989000 79136677
" />
<path d="M63471000 80016677
L66713000 80016677
" />
<path d="M63471000 78936677
L65946000 78936677
" />
<path d="M58929000 78536677
L65531000 78536677
" />
<path d="M58551000 78896677
L60989000 78896677
" />
<path d="M63471000 79096677
L66088000 79096677
" />
<path d="M57419000 80776677
L60989000 80776677
" />
<path d="M63471000 81136677
L67148000 81136677
" />
<path d="M63471000 79576677
L66451000 79576677
" />
<path d="M57523000 80496677
L60989000 80496677
" />
<path d="M57591000 80336677
L60989000 80336677
" />
<path d="M63471000 79776677
L66577000 79776677
" />
<path d="M57957000 79656677
L60989000 79656677
" />
<path d="M57573000 80376677
L60989000 80376677
" />
<path d="M63471000 80056677
L66734000 80056677
" />
<path d="M63471000 79496677
L66396000 79496677
" />
<path d="M58477000 78976677
L60989000 78976677
" />
<path d="M63471000 79856677
L66625000 79856677
" />
<path d="M57556000 80416677
L60989000 80416677
" />
<path d="M63471000 79896677
L66647000 79896677
" />
<path d="M57907000 79736677
L60989000 79736677
" />
<path d="M57256000 81376677
L67204000 81376677
" />
<path d="M58794000 78656677
L65666000 78656677
" />
<path d="M57151000 82297677
L67309000 82297677
" />
<path d="M57240000 81456677
L67220000 81456677
" />
<path d="M59941000 77856677
L64519000 77856677
" />
<path d="M57180000 81857677
L67280000 81857677
" />
<path d="M59521000 78096677
L64939000 78096677
" />
<path d="M63471000 79176677
L66155000 79176677
" />
<path d="M57206000 81656677
L67254000 81656677
" />
<path d="M58305000 79176677
L60989000 79176677
" />
<path d="M57195000 81737677
L67265000 81737677
" />
<path d="M57190000 81777677
L67270000 81777677
" />
<path d="M58150000 79376677
L60989000 79376677
" />
<path d="M58241000 79256677
L60989000 79256677
" />
<path d="M63471000 78856677
L65870000 78856677
" />
<path d="M59585000 78056677
L64875000 78056677
" />
<path d="M57226000 81536677
L67234000 81536677
" />
<path d="M63471000 80576677
L66968000 80576677
" />
<path d="M63471000 79336677
L66280000 79336677
" />
<path d="M59651000 78016677
L64809000 78016677
" />
<path d="M57312000 81136677
L60989000 81136677
" />
<path d="M63471000 80816677
L67054000 80816677
" />
<path d="M58120000 79416677
L60989000 79416677
" />
<path d="M59230000 78296677
L65230000 78296677
" />
<path d="M57492000 80576677
L60989000 80576677
" />
<path d="M57768000 79976677
L60989000 79976677
" />
<path d="M63471000 80096677
L66755000 80096677
" />
<path d="M63471000 80176677
L66794000 80176677
" />
<path d="M63471000 79536677
L66424000 79536677
" />
<path d="M58669000 78776677
L60989000 78776677
" />
<path d="M58855000 87397323
L59855000 87397323
" />
<path d="M63471000 80216677
L66814000 80216677
" />
<path d="M63471000 80296677
L66851000 80296677
" />
<path d="M57406000 80816677
L60989000 80816677
" />
<path d="M63471000 81016677
L67115000 81016677
" />
<path d="M57150000 82417677
L67310000 82417677
" />
<path d="M58372000 79096677
L60989000 79096677
" />
<path d="M58180000 79336677
L60989000 79336677
" />
<path d="M57932000 79696677
L60989000 79696677
" />
<path d="M57666000 80176677
L60989000 80176677
" />
<path d="M58009000 79576677
L60989000 79576677
" />
<path d="M59074000 78416677
L65386000 78416677
" />
<path d="M63471000 81056677
L67127000 81056677
" />
<path d="M59400000 78176677
L65060000 78176677
" />
<path d="M63471000 79256677
L66219000 79256677
" />
<path d="M57507000 80536677
L60989000 80536677
" />
<circle cx="62230000.000000" cy="82417677.000000" r="5120000.000000" /> 
<path d="M87730000 82429000
L87730000 87470000
" />
<path d="M88825000 82429000
L87730000 82429000
" />
<path d="M97771000 82429000
L96676000 82429000
" />
<path d="M91130000 83787000
L91130000 87470000
" />
<path d="M93824000 82429000
L91675000 82429000
" />
<path d="M94370000 83787000
L94370000 87470000
" />
<path d="M94370000 87470000
L91130000 87470000
" />
<path d="M97771000 87470000
L87730000 87470000
" />
<path d="M97771000 82429000
L97771000 87470000
" />
<path d="M93824000 82429000
L91675000 82429000
" />
<path d="M57765000 43395000
L57765000 43330000
" />
<path d="M61005000 43330000
L57765000 43330000
" />
<path d="M61005000 45570000
L61005000 45505000
" />
<path d="M61005000 43395000
L61005000 43330000
" />
<path d="M57765000 45570000
L57765000 45505000
" />
<path d="M61005000 45570000
L57765000 45570000
" />
<path d="M78410000 68795000
L78410000 68730000
" />
<path d="M81650000 70970000
L81650000 70905000
" />
<path d="M81650000 68730000
L78410000 68730000
" />
<path d="M78410000 70970000
L78410000 70905000
" />
<path d="M81650000 70970000
L78410000 70970000
" />
<path d="M81650000 68795000
L81650000 68730000
" />
<path d="M48246000 73880000
L48292000 73927000
" />
<path d="M50554000 71109000
L50589000 71144000
" />
<path d="M44054000 82835000
L44054000 67475000
" />
<path d="M54215000 83075000
L54215000 82575000
" />
<path d="M44054000 82835000
L53975000 82835000
" />
<path d="M50338000 76382000
L50384000 76429000
" />
<path d="M51915000 82835000
L51915000 67475000
" />
<path d="M50554000 76189000
L50589000 76224000
" />
<path d="M50338000 71302000
L50384000 71349000
" />
<path d="M44054000 67475000
L53975000 67475000
" />
<path d="M47014000 82835000
L47014000 67475000
" />
<path d="M53475000 83075000
L54215000 83075000
" />
<path d="M48246000 68800000
L48292000 68847000
" />
<path d="M53415000 82835000
L53415000 67475000
" />
<path d="M48040000 74085000
L48076000 74120000
" />
<path d="M48040000 69005000
L48076000 69040000
" />
<path d="M53975000 82835000
L53975000 67475000
" />
<path d="M49999000.316196 78699999.290409 A1680501.000000 1680501.000000 0.0 0 0 48631957.859126 78699572.683325" />
<path d="M48631000.096157 81769999.784210 A1680494.000000 1680494.000000 0.0 0 0 49998042.060461 81770427.135911" />
<path d="M50995000.000000 80235000.000000 A1680000.000000 1680000.000000 0.0 0 0 50849756.144465 79551681.935680" />
<path d="M50850000.247038 80919000.110081 A1680501.000000 1680501.000000 0.0 0 0 50995253.095448 80206194.998364" />
<path d="M47780000.215790 79551000.096157 A1680494.000000 1680494.000000 0.0 0 0 47779572.864089 80918042.060461" />
<circle cx="49315000.000000" cy="75155000.000000" r="1680000.000000" /> 
<circle cx="49315000.000000" cy="70075000.000000" r="1680000.000000" /> 
<g >
</g>
<g >
</g>
<g >
</g>
<g >
</g>
<g >
</g>
<g >
</g>
<g >
</g>
<g >
</g>
<g >
</g>
<g >
</g>
<g >
</g>
<g >
</g>
<g >
</g>
<g >
</g>
<g >
</g>
<g >
</g>
<g >
</g>
<g >
</g>
<g >
</g>
<g >
</g>
<g >
</g>
<g >
</g>
<g >
</g>
<g >
</g>
<g >
</g>
<g >
</g>
<g >
</g>
<g >
</g>
<g >
</g>
<g >
</g>
<g >
</g>
<g >
</g>
<g >
</g>
<g >
</g>
</g> 
</svg>
