<?xml version="1.0" standalone="no"?>
 <!DOCTYPE svg PUBLIC "-//W3C//DTD SVG 1.1//EN" 
 "http://www.w3.org/Graphics/SVG/1.1/DTD/svg11.dtd"> 
<svg
  xmlns:svg="http://www.w3.org/2000/svg"
  xmlns="http://www.w3.org/2000/svg"
  xmlns:xlink="http://www.w3.org/1999/xlink"
  version="1.1"
  width="29.700220cm" height="21.000720cm" viewBox="0 0 116930 82680">
<title>SVG Picture created as misura_corrente.svg date 2022/06/01 09:22:49 </title>
  <desc>Picture generated by Eeschema-SVG </desc>
<g style="fill:#000000; fill-opacity:1.000000;stroke:#000000; stroke-opacity:1.000000;
stroke-linecap:round; stroke-linejoin:round;"
 transform="translate(0 0) scale(1 1)">
</g>
<g style="fill:#840000; fill-opacity:0.0; 
stroke:#840000; stroke-width:0.000000; stroke-opacity:1; 
stroke-linecap:round; stroke-linejoin:round;">
</g>
<g style="fill:#840000; fill-opacity:0.0; 
stroke:#840000; stroke-width:60.000000; stroke-opacity:1; 
stroke-linecap:round; stroke-linejoin:round;">
<rect x="69685.905512" y="65357.165354" width="42519.685039" height="12598.425197" rx="0.000000" />
<rect x="3937.007874" y="3937.007874" width="109055.984252" height="74805.984252" rx="0.000000" />
<rect x="4724.409449" y="4724.409449" width="107481.181102" height="73231.181102" rx="0.000000" />
<path d="M23622 4724
L23622 3937
" />
<path d="M43307 4724
L43307 3937
" />
<path d="M62992 4724
L62992 3937
" />
<path d="M82677 4724
L82677 3937
" />
<path d="M102362 4724
L102362 3937
" />
<text x="13779.527559" y="4586.614173"
textLength="549.960630" font-size="682.401575" lengthAdjust="spacingAndGlyphs"
text-anchor="start" opacity="0">1</text>
<g class="stroked-text"><desc>1</desc>
<path d="M14199 4562
L13907 4562
" />
<path d="M14053 4562
L14053 4050
L14004 4123
L13955 4172
L13907 4196
" />
</g><text x="33464.566929" y="4586.614173"
textLength="547.440945" font-size="682.401575" lengthAdjust="spacingAndGlyphs"
text-anchor="start" opacity="0">2</text>
<g class="stroked-text"><desc>2</desc>
<path d="M33592 4099
L33616 4074
L33665 4050
L33787 4050
L33835 4074
L33860 4099
L33884 4147
L33884 4196
L33860 4269
L33567 4562
L33884 4562
" />
</g><text x="53149.606299" y="4586.614173"
textLength="547.440945" font-size="682.401575" lengthAdjust="spacingAndGlyphs"
text-anchor="start" opacity="0">3</text>
<g class="stroked-text"><desc>3</desc>
<path d="M53252 4050
L53569 4050
L53398 4245
L53472 4245
L53520 4269
L53545 4294
L53569 4342
L53569 4464
L53545 4513
L53520 4537
L53472 4562
L53325 4562
L53277 4537
L53252 4513
" />
</g><text x="72834.645669" y="4586.614173"
textLength="547.440945" font-size="682.401575" lengthAdjust="spacingAndGlyphs"
text-anchor="start" opacity="0">4</text>
<g class="stroked-text"><desc>4</desc>
<path d="M73205 4221
L73205 4562
" />
<path d="M73083 4026
L72962 4391
L73278 4391
" />
</g><text x="92519.685039" y="4586.614173"
textLength="547.440945" font-size="682.401575" lengthAdjust="spacingAndGlyphs"
text-anchor="start" opacity="0">5</text>
<g class="stroked-text"><desc>5</desc>
<path d="M92915 4050
L92671 4050
L92647 4294
L92671 4269
L92720 4245
L92842 4245
L92890 4269
L92915 4294
L92939 4342
L92939 4464
L92915 4513
L92890 4537
L92842 4562
L92720 4562
L92671 4537
L92647 4513
" />
</g><text x="112204.724409" y="4586.614173"
textLength="547.440945" font-size="682.401575" lengthAdjust="spacingAndGlyphs"
text-anchor="start" opacity="0">6</text>
<g class="stroked-text"><desc>6</desc>
<path d="M112575 4050
L112478 4050
L112429 4074
L112405 4099
L112356 4172
L112332 4269
L112332 4464
L112356 4513
L112380 4537
L112429 4562
L112527 4562
L112575 4537
L112600 4513
L112624 4464
L112624 4342
L112600 4294
L112575 4269
L112527 4245
L112429 4245
L112380 4269
L112356 4294
L112332 4342
" />
</g><path d="M23622 77955
L23622 78742
" />
<path d="M43307 77955
L43307 78742
" />
<path d="M62992 77955
L62992 78742
" />
<path d="M82677 77955
L82677 78742
" />
<path d="M102362 77955
L102362 78742
" />
<text x="13779.527559" y="78605.196850"
textLength="547.440945" font-size="682.401575" lengthAdjust="spacingAndGlyphs"
text-anchor="start" opacity="0">1</text>
<g class="stroked-text"><desc>1</desc>
<path d="M14199 78580
L13907 78580
" />
<path d="M14053 78580
L14053 78068
L14004 78142
L13955 78190
L13907 78215
" />
</g><text x="33464.566929" y="78605.196850"
textLength="547.440945" font-size="682.401575" lengthAdjust="spacingAndGlyphs"
text-anchor="start" opacity="0">2</text>
<g class="stroked-text"><desc>2</desc>
<path d="M33592 78117
L33616 78093
L33665 78068
L33787 78068
L33835 78093
L33860 78117
L33884 78166
L33884 78215
L33860 78288
L33567 78580
L33884 78580
" />
</g><text x="53149.606299" y="78605.196850"
textLength="547.440945" font-size="682.401575" lengthAdjust="spacingAndGlyphs"
text-anchor="start" opacity="0">3</text>
<g class="stroked-text"><desc>3</desc>
<path d="M53252 78068
L53569 78068
L53398 78263
L53472 78263
L53520 78288
L53545 78312
L53569 78361
L53569 78483
L53545 78532
L53520 78556
L53472 78580
L53325 78580
L53277 78556
L53252 78532
" />
</g><text x="72834.645669" y="78605.196850"
textLength="547.440945" font-size="682.401575" lengthAdjust="spacingAndGlyphs"
text-anchor="start" opacity="0">4</text>
<g class="stroked-text"><desc>4</desc>
<path d="M73205 78239
L73205 78580
" />
<path d="M73083 78044
L72962 78410
L73278 78410
" />
</g><text x="92519.685039" y="78605.196850"
textLength="547.440945" font-size="682.401575" lengthAdjust="spacingAndGlyphs"
text-anchor="start" opacity="0">5</text>
<g class="stroked-text"><desc>5</desc>
<path d="M92915 78068
L92671 78068
L92647 78312
L92671 78288
L92720 78263
L92842 78263
L92890 78288
L92915 78312
L92939 78361
L92939 78483
L92915 78532
L92890 78556
L92842 78580
L92720 78580
L92671 78556
L92647 78532
" />
</g><text x="112204.724409" y="78605.196850"
textLength="547.440945" font-size="682.401575" lengthAdjust="spacingAndGlyphs"
text-anchor="start" opacity="0">6</text>
<g class="stroked-text"><desc>6</desc>
<path d="M112575 78068
L112478 78068
L112429 78093
L112405 78117
L112356 78190
L112332 78288
L112332 78483
L112356 78532
L112380 78556
L112429 78580
L112527 78580
L112575 78556
L112600 78532
L112624 78483
L112624 78361
L112600 78312
L112575 78288
L112527 78263
L112429 78263
L112380 78288
L112356 78312
L112332 78361
" />
</g><path d="M3937 23622
L4724 23622
" />
<path d="M3937 43307
L4724 43307
" />
<path d="M3937 62992
L4724 62992
" />
<text x="4330.708661" y="14035.433071"
textLength="498.700787" font-size="682.401575" lengthAdjust="spacingAndGlyphs"
text-anchor="middle" opacity="0">A</text>
<g class="stroked-text"><desc>A</desc>
<path d="M4208 13864
L4452 13864
" />
<path d="M4160 14011
L4330 13499
L4501 14011
" />
</g><text x="4330.708661" y="33720.472441"
textLength="571.811024" font-size="682.401575" lengthAdjust="spacingAndGlyphs"
text-anchor="middle" opacity="0">B</text>
<g class="stroked-text"><desc>B</desc>
<path d="M4367 33427
L4440 33452
L4464 33476
L4489 33525
L4489 33598
L4464 33647
L4440 33671
L4391 33696
L4196 33696
L4196 33184
L4367 33184
L4415 33208
L4440 33233
L4464 33281
L4464 33330
L4440 33379
L4415 33403
L4367 33427
L4196 33427
" />
</g><text x="4330.708661" y="53405.511811"
textLength="571.811024" font-size="682.401575" lengthAdjust="spacingAndGlyphs"
text-anchor="middle" opacity="0">C</text>
<g class="stroked-text"><desc>C</desc>
<path d="M4489 53332
L4464 53356
L4391 53381
L4342 53381
L4269 53356
L4221 53307
L4196 53259
L4172 53161
L4172 53088
L4196 52991
L4221 52942
L4269 52893
L4342 52869
L4391 52869
L4464 52893
L4489 52918
" />
</g><text x="4330.708661" y="73090.551181"
textLength="571.811024" font-size="682.401575" lengthAdjust="spacingAndGlyphs"
text-anchor="middle" opacity="0">D</text>
<g class="stroked-text"><desc>D</desc>
<path d="M4196 73066
L4196 72554
L4318 72554
L4391 72578
L4440 72627
L4464 72676
L4489 72773
L4489 72846
L4464 72944
L4440 72993
L4391 73041
L4318 73066
L4196 73066
" />
</g><path d="M112992 23622
L112205 23622
" />
<path d="M112992 43307
L112205 43307
" />
<path d="M112992 62992
L112205 62992
" />
<text x="112599.291339" y="14035.433071"
textLength="498.700787" font-size="682.401575" lengthAdjust="spacingAndGlyphs"
text-anchor="middle" opacity="0">A</text>
<g class="stroked-text"><desc>A</desc>
<path d="M112477 13864
L112721 13864
" />
<path d="M112428 14011
L112599 13499
L112769 14011
" />
</g><text x="112599.291339" y="33720.472441"
textLength="571.811024" font-size="682.401575" lengthAdjust="spacingAndGlyphs"
text-anchor="middle" opacity="0">B</text>
<g class="stroked-text"><desc>B</desc>
<path d="M112635 33427
L112708 33452
L112733 33476
L112757 33525
L112757 33598
L112733 33647
L112708 33671
L112660 33696
L112465 33696
L112465 33184
L112635 33184
L112684 33208
L112708 33233
L112733 33281
L112733 33330
L112708 33379
L112684 33403
L112635 33427
L112465 33427
" />
</g><text x="112599.291339" y="53405.511811"
textLength="571.811024" font-size="682.401575" lengthAdjust="spacingAndGlyphs"
text-anchor="middle" opacity="0">C</text>
<g class="stroked-text"><desc>C</desc>
<path d="M112757 53332
L112733 53356
L112660 53381
L112611 53381
L112538 53356
L112489 53307
L112465 53259
L112440 53161
L112440 53088
L112465 52991
L112489 52942
L112538 52893
L112611 52869
L112660 52869
L112733 52893
L112757 52918
" />
</g><text x="112599.291339" y="73090.551181"
textLength="571.811024" font-size="682.401575" lengthAdjust="spacingAndGlyphs"
text-anchor="middle" opacity="0">D</text>
<g class="stroked-text"><desc>D</desc>
<path d="M112465 73066
L112465 72554
L112587 72554
L112660 72578
L112708 72627
L112733 72676
L112757 72773
L112757 72846
L112733 72944
L112708 72993
L112660 73041
L112587 73066
L112465 73066
" />
</g><text x="78741.023622" y="76321.732283"
textLength="2759.645669" font-size="787.401575" lengthAdjust="spacingAndGlyphs"
text-anchor="start" opacity="0">Date: </text>
<g class="stroked-text"><desc>Date: </desc>
<path d="M78911 76293
L78911 75703
L79052 75703
L79136 75731
L79192 75787
L79220 75843
L79249 75956
L79249 76040
L79220 76152
L79192 76209
L79136 76265
L79052 76293
L78911 76293
" />
<path d="M79755 76293
L79755 75984
L79727 75928
L79670 75899
L79558 75899
L79502 75928
" />
<path d="M79755 76265
L79699 76293
L79558 76293
L79502 76265
L79474 76209
L79474 76152
L79502 76096
L79558 76068
L79699 76068
L79755 76040
" />
<path d="M79952 75899
L80177 75899
" />
<path d="M80036 75703
L80036 76209
L80064 76265
L80120 76293
L80177 76293
" />
<path d="M80598 76265
L80542 76293
L80430 76293
L80373 76265
L80345 76209
L80345 75984
L80373 75928
L80430 75899
L80542 75899
L80598 75928
L80627 75984
L80627 76040
L80345 76096
" />
<path d="M80880 76237
L80908 76265
L80880 76293
L80852 76265
L80880 76237
L80880 76293
" />
<path d="M80880 75928
L80908 75956
L80880 75984
L80852 75956
L80880 75928
L80880 75984
" />
</g><path d="M69685 76577
L112205 76577
" />
<text x="70079.606299" y="77424.094488"
textLength="14992.519685" font-size="787.401575" lengthAdjust="spacingAndGlyphs"
text-anchor="start" opacity="0">KiCad E.D.A.  kicad 6.0.4-1.fc35</text>
<g class="stroked-text"><desc>KiCad E.D.A.  kicad 6.0.4-1.fc35</desc>
<path d="M70250 77395
L70250 76805
" />
<path d="M70587 77395
L70334 77058
" />
<path d="M70587 76805
L70250 77142
" />
<path d="M70840 77395
L70840 77002
" />
<path d="M70840 76805
L70812 76833
L70840 76861
L70868 76833
L70840 76805
L70840 76861
" />
<path d="M71459 77339
L71431 77367
L71346 77395
L71290 77395
L71206 77367
L71150 77311
L71121 77255
L71093 77142
L71093 77058
L71121 76946
L71150 76889
L71206 76833
L71290 76805
L71346 76805
L71431 76833
L71459 76861
" />
<path d="M71965 77395
L71965 77086
L71937 77030
L71881 77002
L71768 77002
L71712 77030
" />
<path d="M71965 77367
L71909 77395
L71768 77395
L71712 77367
L71684 77311
L71684 77255
L71712 77199
L71768 77170
L71909 77170
L71965 77142
" />
<path d="M72499 77395
L72499 76805
" />
<path d="M72499 77367
L72443 77395
L72331 77395
L72274 77367
L72246 77339
L72218 77283
L72218 77114
L72246 77058
L72274 77030
L72331 77002
L72443 77002
L72499 77030
" />
<path d="M73231 77086
L73427 77086
" />
<path d="M73512 77395
L73231 77395
L73231 76805
L73512 76805
" />
<path d="M73765 77339
L73793 77367
L73765 77395
L73737 77367
L73765 77339
L73765 77395
" />
<path d="M74046 77395
L74046 76805
L74187 76805
L74271 76833
L74327 76889
L74355 76946
L74384 77058
L74384 77142
L74355 77255
L74327 77311
L74271 77367
L74187 77395
L74046 77395
" />
<path d="M74637 77339
L74665 77367
L74637 77395
L74609 77367
L74637 77339
L74637 77395
" />
<path d="M74890 77227
L75171 77227
" />
<path d="M74834 77395
L75030 76805
L75227 77395
" />
<path d="M75424 77339
L75452 77367
L75424 77395
L75396 77367
L75424 77339
L75424 77395
" />
<path d="M76605 77395
L76605 76805
" />
<path d="M76661 77170
L76830 77395
" />
<path d="M76830 77002
L76605 77227
" />
<path d="M77083 77395
L77083 77002
" />
<path d="M77083 76805
L77055 76833
L77083 76861
L77111 76833
L77083 76805
L77083 76861
" />
<path d="M77618 77367
L77561 77395
L77449 77395
L77393 77367
L77364 77339
L77336 77283
L77336 77114
L77364 77058
L77393 77030
L77449 77002
L77561 77002
L77618 77030
" />
<path d="M78124 77395
L78124 77086
L78096 77030
L78039 77002
L77927 77002
L77871 77030
" />
<path d="M78124 77367
L78067 77395
L77927 77395
L77871 77367
L77842 77311
L77842 77255
L77871 77199
L77927 77170
L78067 77170
L78124 77142
" />
<path d="M78658 77395
L78658 76805
" />
<path d="M78658 77367
L78602 77395
L78489 77395
L78433 77367
L78405 77339
L78377 77283
L78377 77114
L78405 77058
L78433 77030
L78489 77002
L78602 77002
L78658 77030
" />
<path d="M79642 76805
L79530 76805
L79474 76833
L79445 76861
L79389 76946
L79361 77058
L79361 77283
L79389 77339
L79417 77367
L79474 77395
L79586 77395
L79642 77367
L79670 77339
L79699 77283
L79699 77142
L79670 77086
L79642 77058
L79586 77030
L79474 77030
L79417 77058
L79389 77086
L79361 77142
" />
<path d="M79952 77339
L79980 77367
L79952 77395
L79923 77367
L79952 77339
L79952 77395
" />
<path d="M80345 76805
L80402 76805
L80458 76833
L80486 76861
L80514 76917
L80542 77030
L80542 77170
L80514 77283
L80486 77339
L80458 77367
L80402 77395
L80345 77395
L80289 77367
L80261 77339
L80233 77283
L80205 77170
L80205 77030
L80233 76917
L80261 76861
L80289 76833
L80345 76805
" />
<path d="M80795 77339
L80823 77367
L80795 77395
L80767 77367
L80795 77339
L80795 77395
" />
<path d="M81330 77002
L81330 77395
" />
<path d="M81189 76777
L81048 77199
L81414 77199
" />
<path d="M81639 77170
L82089 77170
" />
<path d="M82679 77395
L82342 77395
" />
<path d="M82511 77395
L82511 76805
L82454 76889
L82398 76946
L82342 76974
" />
<path d="M82932 77339
L82961 77367
L82932 77395
L82904 77367
L82932 77339
L82932 77395
" />
<path d="M83129 77002
L83354 77002
" />
<path d="M83214 77395
L83214 76889
L83242 76833
L83298 76805
L83354 76805
" />
<path d="M83804 77367
L83748 77395
L83636 77395
L83579 77367
L83551 77339
L83523 77283
L83523 77114
L83551 77058
L83579 77030
L83636 77002
L83748 77002
L83804 77030
" />
<path d="M84001 76805
L84367 76805
L84170 77030
L84254 77030
L84310 77058
L84339 77086
L84367 77142
L84367 77283
L84339 77339
L84310 77367
L84254 77395
L84085 77395
L84029 77367
L84001 77339
" />
<path d="M84901 76805
L84620 76805
L84592 77086
L84620 77058
L84676 77030
L84817 77030
L84873 77058
L84901 77086
L84929 77142
L84929 77283
L84901 77339
L84873 77367
L84817 77395
L84676 77395
L84620 77367
L84592 77339
" />
</g><path d="M69685 75396
L112205 75396
" />
</g>
<g style="fill:#840000; fill-opacity:0.0; 
stroke:#840000; stroke-width:118.110236; stroke-opacity:1; 
stroke-linecap:round; stroke-linejoin:round;">
<text x="103544.173228" y="76321.732283"
textLength="2337.834646" font-size="787.401575" lengthAdjust="spacingAndGlyphs"
text-anchor="start" opacity="0">Rev: </text>
<g class="stroked-text"><desc>Rev: </desc>
<path d="M104098 76293
L103902 76012
" />
<path d="M103761 76293
L103761 75703
L103986 75703
L104042 75731
L104070 75759
L104098 75815
L104098 75899
L104070 75956
L104042 75984
L103986 76012
L103761 76012
" />
<path d="M104577 76265
L104520 76293
L104408 76293
L104352 76265
L104323 76209
L104323 75984
L104352 75928
L104408 75899
L104520 75899
L104577 75928
L104605 75984
L104605 76040
L104323 76096
" />
<path d="M104802 75899
L104942 76293
L105083 75899
" />
<path d="M105308 76237
L105336 76265
L105308 76293
L105280 76265
L105308 76237
L105308 76293
" />
<path d="M105308 75928
L105336 75956
L105308 75984
L105280 75956
L105308 75928
L105308 75984
" />
</g></g>
<g style="fill:#840000; fill-opacity:0.0; 
stroke:#840000; stroke-width:60.000000; stroke-opacity:1; 
stroke-linecap:round; stroke-linejoin:round;">
<text x="70079.606299" y="76321.732283"
textLength="3781.220472" font-size="787.401575" lengthAdjust="spacingAndGlyphs"
text-anchor="start" opacity="0">Size: A4</text>
<g class="stroked-text"><desc>Size: A4</desc>
<path d="M70222 76265
L70306 76293
L70447 76293
L70503 76265
L70531 76237
L70559 76181
L70559 76124
L70531 76068
L70503 76040
L70447 76012
L70334 75984
L70278 75956
L70250 75928
L70222 75871
L70222 75815
L70250 75759
L70278 75731
L70334 75703
L70475 75703
L70559 75731
" />
<path d="M70812 76293
L70812 75899
" />
<path d="M70812 75703
L70784 75731
L70812 75759
L70840 75731
L70812 75703
L70812 75759
" />
<path d="M71037 75899
L71346 75899
L71037 76293
L71346 76293
" />
<path d="M71796 76265
L71740 76293
L71628 76293
L71571 76265
L71543 76209
L71543 75984
L71571 75928
L71628 75899
L71740 75899
L71796 75928
L71825 75984
L71825 76040
L71543 76096
" />
<path d="M72078 76237
L72106 76265
L72078 76293
L72049 76265
L72078 76237
L72078 76293
" />
<path d="M72078 75928
L72106 75956
L72078 75984
L72049 75956
L72078 75928
L72078 75984
" />
<path d="M72781 76124
L73062 76124
" />
<path d="M72724 76293
L72921 75703
L73118 76293
" />
<path d="M73568 75899
L73568 76293
" />
<path d="M73427 75674
L73287 76096
L73652 76096
" />
</g><text x="103544.173228" y="77424.094488"
textLength="3350.196850" font-size="787.401575" lengthAdjust="spacingAndGlyphs"
text-anchor="start" opacity="0">Id: 1/1</text>
<g class="stroked-text"><desc>Id: 1/1</desc>
<path d="M103714 77395
L103714 76805
" />
<path d="M104249 77395
L104249 76805
" />
<path d="M104249 77367
L104192 77395
L104080 77395
L104024 77367
L103995 77339
L103967 77283
L103967 77114
L103995 77058
L104024 77030
L104080 77002
L104192 77002
L104249 77030
" />
<path d="M104530 77339
L104558 77367
L104530 77395
L104502 77367
L104530 77339
L104530 77395
" />
<path d="M104530 77030
L104558 77058
L104530 77086
L104502 77058
L104530 77030
L104530 77086
" />
<path d="M105570 77395
L105233 77395
" />
<path d="M105402 77395
L105402 76805
L105345 76889
L105289 76946
L105233 76974
" />
<path d="M106245 76777
L105739 77536
" />
<path d="M106751 77395
L106414 77395
" />
<path d="M106583 77395
L106583 76805
L106526 76889
L106470 76946
L106414 76974
" />
</g><path d="M69685 73821
L112205 73821
" />
</g>
<g style="fill:#840000; fill-opacity:0.0; 
stroke:#840000; stroke-width:157.480315; stroke-opacity:1; 
stroke-linecap:round; stroke-linejoin:round;">
<text x="70079.606299" y="74924.094488"
textLength="3705.511811" font-size="1049.842520" lengthAdjust="spacingAndGlyphs"
text-anchor="start" opacity="0">Title: </text>
<g class="stroked-text"><desc>Title: </desc>
<path d="M70360 74099
L70810 74099
" />
<path d="M70486 74886
L70585 74099
" />
<path d="M70974 74886
L71039 74361
" />
<path d="M71072 74099
L71030 74136
L71063 74174
L71105 74136
L71072 74099
L71063 74174
" />
<path d="M71302 74361
L71602 74361
" />
<path d="M71447 74099
L71363 74774
L71391 74849
L71461 74886
L71536 74886
" />
<path d="M71911 74886
L71841 74849
L71812 74774
L71897 74099
" />
<path d="M72516 74849
L72436 74886
L72286 74886
L72216 74849
L72187 74774
L72225 74474
L72272 74399
L72352 74361
L72501 74361
L72572 74399
L72600 74474
L72591 74549
L72206 74624
" />
<path d="M72895 74811
L72928 74849
L72886 74886
L72853 74849
L72895 74811
L72886 74886
" />
<path d="M72947 74399
L72980 74436
L72937 74474
L72905 74436
L72947 74399
L72937 74474
" />
</g></g>
<g style="fill:#840000; fill-opacity:0.0; 
stroke:#840000; stroke-width:60.000000; stroke-opacity:1; 
stroke-linecap:round; stroke-linejoin:round;">
<text x="70079.606299" y="73408.346457"
textLength="14209.212598" font-size="787.401575" lengthAdjust="spacingAndGlyphs"
text-anchor="start" opacity="0">File: misura_corrente.kicad_sch</text>
<g class="stroked-text"><desc>File: misura_corrente.kicad_sch</desc>
<path d="M70447 73070
L70250 73070
" />
<path d="M70250 73380
L70250 72789
L70531 72789
" />
<path d="M70756 73380
L70756 72986
" />
<path d="M70756 72789
L70728 72817
L70756 72845
L70784 72817
L70756 72789
L70756 72845
" />
<path d="M71121 73380
L71065 73352
L71037 73295
L71037 72789
" />
<path d="M71571 73352
L71515 73380
L71403 73380
L71346 73352
L71318 73295
L71318 73070
L71346 73014
L71403 72986
L71515 72986
L71571 73014
L71600 73070
L71600 73127
L71318 73183
" />
<path d="M71853 73323
L71881 73352
L71853 73380
L71825 73352
L71853 73323
L71853 73380
" />
<path d="M71853 73014
L71881 73042
L71853 73070
L71825 73042
L71853 73014
L71853 73070
" />
<path d="M72584 73380
L72584 72986
" />
<path d="M72584 73042
L72612 73014
L72668 72986
L72752 72986
L72809 73014
L72837 73070
L72837 73380
" />
<path d="M72837 73070
L72865 73014
L72921 72986
L73006 72986
L73062 73014
L73090 73070
L73090 73380
" />
<path d="M73371 73380
L73371 72986
" />
<path d="M73371 72789
L73343 72817
L73371 72845
L73399 72817
L73371 72789
L73371 72845
" />
<path d="M73624 73352
L73681 73380
L73793 73380
L73849 73352
L73877 73295
L73877 73267
L73849 73211
L73793 73183
L73709 73183
L73652 73155
L73624 73098
L73624 73070
L73652 73014
L73709 72986
L73793 72986
L73849 73014
" />
<path d="M74384 72986
L74384 73380
" />
<path d="M74130 72986
L74130 73295
L74159 73352
L74215 73380
L74299 73380
L74355 73352
L74384 73323
" />
<path d="M74665 73380
L74665 72986
" />
<path d="M74665 73098
L74693 73042
L74721 73014
L74777 72986
L74834 72986
" />
<path d="M75283 73380
L75283 73070
L75255 73014
L75199 72986
L75087 72986
L75030 73014
" />
<path d="M75283 73352
L75227 73380
L75087 73380
L75030 73352
L75002 73295
L75002 73239
L75030 73183
L75087 73155
L75227 73155
L75283 73127
" />
<path d="M75424 73436
L75874 73436
" />
<path d="M76268 73352
L76211 73380
L76099 73380
L76043 73352
L76015 73323
L75986 73267
L75986 73098
L76015 73042
L76043 73014
L76099 72986
L76211 72986
L76268 73014
" />
<path d="M76605 73380
L76549 73352
L76521 73323
L76493 73267
L76493 73098
L76521 73042
L76549 73014
L76605 72986
L76690 72986
L76746 73014
L76774 73042
L76802 73098
L76802 73267
L76774 73323
L76746 73352
L76690 73380
L76605 73380
" />
<path d="M77055 73380
L77055 72986
" />
<path d="M77055 73098
L77083 73042
L77111 73014
L77168 72986
L77224 72986
" />
<path d="M77421 73380
L77421 72986
" />
<path d="M77421 73098
L77449 73042
L77477 73014
L77533 72986
L77589 72986
" />
<path d="M78011 73352
L77955 73380
L77842 73380
L77786 73352
L77758 73295
L77758 73070
L77786 73014
L77842 72986
L77955 72986
L78011 73014
L78039 73070
L78039 73127
L77758 73183
" />
<path d="M78292 72986
L78292 73380
" />
<path d="M78292 73042
L78321 73014
L78377 72986
L78461 72986
L78517 73014
L78546 73070
L78546 73380
" />
<path d="M78742 72986
L78967 72986
" />
<path d="M78827 72789
L78827 73295
L78855 73352
L78911 73380
L78967 73380
" />
<path d="M79389 73352
L79333 73380
L79220 73380
L79164 73352
L79136 73295
L79136 73070
L79164 73014
L79220 72986
L79333 72986
L79389 73014
L79417 73070
L79417 73127
L79136 73183
" />
<path d="M79670 73323
L79699 73352
L79670 73380
L79642 73352
L79670 73323
L79670 73380
" />
<path d="M79952 73380
L79952 72789
" />
<path d="M80008 73155
L80177 73380
" />
<path d="M80177 72986
L79952 73211
" />
<path d="M80430 73380
L80430 72986
" />
<path d="M80430 72789
L80402 72817
L80430 72845
L80458 72817
L80430 72789
L80430 72845
" />
<path d="M80964 73352
L80908 73380
L80795 73380
L80739 73352
L80711 73323
L80683 73267
L80683 73098
L80711 73042
L80739 73014
L80795 72986
L80908 72986
L80964 73014
" />
<path d="M81470 73380
L81470 73070
L81442 73014
L81386 72986
L81273 72986
L81217 73014
" />
<path d="M81470 73352
L81414 73380
L81273 73380
L81217 73352
L81189 73295
L81189 73239
L81217 73183
L81273 73155
L81414 73155
L81470 73127
" />
<path d="M82004 73380
L82004 72789
" />
<path d="M82004 73352
L81948 73380
L81836 73380
L81780 73352
L81751 73323
L81723 73267
L81723 73098
L81751 73042
L81780 73014
L81836 72986
L81948 72986
L82004 73014
" />
<path d="M82145 73436
L82595 73436
" />
<path d="M82708 73352
L82764 73380
L82876 73380
L82932 73352
L82961 73295
L82961 73267
L82932 73211
L82876 73183
L82792 73183
L82736 73155
L82708 73098
L82708 73070
L82736 73014
L82792 72986
L82876 72986
L82932 73014
" />
<path d="M83467 73352
L83411 73380
L83298 73380
L83242 73352
L83214 73323
L83186 73267
L83186 73098
L83214 73042
L83242 73014
L83298 72986
L83411 72986
L83467 73014
" />
<path d="M83720 73380
L83720 72789
" />
<path d="M83973 73380
L83973 73070
L83945 73014
L83889 72986
L83804 72986
L83748 73014
L83720 73042
" />
</g><path d="M69685 71459
L112205 71459
" />
<text x="70079.606299" y="72345.354331"
textLength="3856.417323" font-size="787.401575" lengthAdjust="spacingAndGlyphs"
text-anchor="start" opacity="0">Sheet: /</text>
<g class="stroked-text"><desc>Sheet: /</desc>
<path d="M70222 72289
L70306 72317
L70447 72317
L70503 72289
L70531 72260
L70559 72204
L70559 72148
L70531 72092
L70503 72064
L70447 72035
L70334 72007
L70278 71979
L70250 71951
L70222 71895
L70222 71839
L70250 71782
L70278 71754
L70334 71726
L70475 71726
L70559 71754
" />
<path d="M70812 72317
L70812 71726
" />
<path d="M71065 72317
L71065 72007
L71037 71951
L70981 71923
L70897 71923
L70840 71951
L70812 71979
" />
<path d="M71571 72289
L71515 72317
L71403 72317
L71346 72289
L71318 72232
L71318 72007
L71346 71951
L71403 71923
L71515 71923
L71571 71951
L71600 72007
L71600 72064
L71318 72120
" />
<path d="M72078 72289
L72021 72317
L71909 72317
L71853 72289
L71825 72232
L71825 72007
L71853 71951
L71909 71923
L72021 71923
L72078 71951
L72106 72007
L72106 72064
L71825 72120
" />
<path d="M72274 71923
L72499 71923
" />
<path d="M72359 71726
L72359 72232
L72387 72289
L72443 72317
L72499 72317
" />
<path d="M72696 72260
L72724 72289
L72696 72317
L72668 72289
L72696 72260
L72696 72317
" />
<path d="M72696 71951
L72724 71979
L72696 72007
L72668 71979
L72696 71951
L72696 72007
" />
<path d="M73849 71698
L73343 72457
" />
</g></g>
<g style="fill:#840000; fill-opacity:0.0; 
stroke:#840000; stroke-width:118.110236; stroke-opacity:1; 
stroke-linecap:round; stroke-linejoin:round;">
<text x="70079.606299" y="71164.251969"
textLength="60.000000" font-size="787.401575" lengthAdjust="spacingAndGlyphs"
text-anchor="start" opacity="0"></text>
<g class="stroked-text"><desc></desc>
</g></g>
<g style="fill:#840000; fill-opacity:0.0; 
stroke:#840000; stroke-width:60.000000; stroke-opacity:1; 
stroke-linecap:round; stroke-linejoin:round;">
<text x="70079.606299" y="69983.149606"
textLength="118.110236" font-size="787.401575" lengthAdjust="spacingAndGlyphs"
text-anchor="start" opacity="0"></text>
<g class="stroked-text"><desc></desc>
</g><text x="70079.606299" y="68802.047244"
textLength="60.000000" font-size="787.401575" lengthAdjust="spacingAndGlyphs"
text-anchor="start" opacity="0"></text>
<g class="stroked-text"><desc></desc>
</g><text x="70079.606299" y="67620.944882"
textLength="60.000000" font-size="787.401575" lengthAdjust="spacingAndGlyphs"
text-anchor="start" opacity="0"></text>
<g class="stroked-text"><desc></desc>
</g><text x="70079.606299" y="66439.842520"
textLength="60.000000" font-size="787.401575" lengthAdjust="spacingAndGlyphs"
text-anchor="start" opacity="0"></text>
<g class="stroked-text"><desc></desc>
</g><path d="M77559 75396
L77559 76577
" />
<path d="M102756 75396
L102756 77955
" />
<g >
</g>
<g style="fill:#840000; fill-opacity:1.0; 
stroke:#840000; stroke-width:60.000000; stroke-opacity:1; 
stroke-linecap:round; stroke-linejoin:round;">
<path style="fill:#840000; fill-opacity:1.0; 
stroke:#840000; stroke-width:60.000000; stroke-opacity:1; 
stroke-linecap:round; stroke-linejoin:round;fill-rule:evenodd;"
d="M 55000.000000,18000.000000
55000.000000,18500.000000
54700.000000,18500.000000
55000.000000,19000.000000
55300.000000,18500.000000
55000.000000,18500.000000
" /> 
</g>
<g style="fill:#006464; fill-opacity:0.0; 
stroke:#006464; stroke-width:60.000000; stroke-opacity:1; 
stroke-linecap:round; stroke-linejoin:round;">
<text x="55000.000000" y="20250.000000"
textLength="2060.000000" font-size="666.653543" lengthAdjust="spacingAndGlyphs"
text-anchor="middle" opacity="0">-12V</text>
<g class="stroked-text"><desc>-12V</desc>
<path d="M54119 20035
L54500 20035
" />
<path d="M55000 20226
L54714 20226
" />
<path d="M54857 20226
L54857 19726
L54809 19797
L54761 19845
L54714 19869
" />
<path d="M55190 19773
L55214 19750
L55261 19726
L55380 19726
L55428 19750
L55452 19773
L55476 19821
L55476 19869
L55452 19940
L55166 20226
L55476 20226
" />
<path d="M55619 19726
L55785 20226
L55952 19726
" />
</g></g>
</g>
<g style="fill:#006464; fill-opacity:0.0; 
stroke:#006464; stroke-width:60.000000; stroke-opacity:1; 
stroke-linecap:round; stroke-linejoin:round;">
<g >
</g>
<g style="fill:#840000; fill-opacity:0.0; 
stroke:#840000; stroke-width:60.000000; stroke-opacity:1; 
stroke-linecap:round; stroke-linejoin:round;">
<path style="fill:#840000; fill-opacity:0.0; 
stroke:#840000; stroke-width:60.000000; stroke-opacity:1; 
stroke-linecap:round; stroke-linejoin:round;fill:none"
d="M 56000.000000,18000.000000
56000.000000,18500.000000
56500.000000,18500.000000
56000.000000,19000.000000
55500.000000,18500.000000
56000.000000,18500.000000
" /> 
</g>
<g style="fill:#006464; fill-opacity:0.0; 
stroke:#006464; stroke-width:60.000000; stroke-opacity:1; 
stroke-linecap:round; stroke-linejoin:round;">
<text x="56750.000000" y="19499.960630"
textLength="2012.362205" font-size="666.653543" lengthAdjust="spacingAndGlyphs"
text-anchor="middle" opacity="0">GNDA</text>
<g class="stroked-text"><desc>GNDA</desc>
<path d="M56154 18999
L56107 18976
L56035 18976
L55964 18999
L55916 19047
L55892 19095
L55869 19190
L55869 19261
L55892 19357
L55916 19404
L55964 19452
L56035 19476
L56083 19476
L56154 19452
L56178 19428
L56178 19261
L56083 19261
" />
<path d="M56392 19476
L56392 18976
L56678 19476
L56678 18976
" />
<path d="M56916 19476
L56916 18976
L57035 18976
L57107 18999
L57154 19047
L57178 19095
L57202 19190
L57202 19261
L57178 19357
L57154 19404
L57107 19452
L57035 19476
L56916 19476
" />
<path d="M57392 19333
L57630 19333
" />
<path d="M57345 19476
L57511 18976
L57678 19476
" />
</g></g>
</g>
<g style="fill:#006464; fill-opacity:0.0; 
stroke:#006464; stroke-width:60.000000; stroke-opacity:1; 
stroke-linecap:round; stroke-linejoin:round;">
<g >
</g>
<g style="fill:#840000; fill-opacity:0.0; 
stroke:#840000; stroke-width:60.000000; stroke-opacity:1; 
stroke-linecap:round; stroke-linejoin:round;">
</g>
<g style="fill:#840000; fill-opacity:0.0; 
stroke:#840000; stroke-width:100.000000; stroke-opacity:1; 
stroke-linecap:round; stroke-linejoin:round;">
<rect x="48500.000000" y="13600.000000" width="2000.000000" height="800.000000" rx="0.000000" />
</g>
<g style="fill:#840000; fill-opacity:0.0; 
stroke:#840000; stroke-width:60.000000; stroke-opacity:1; 
stroke-linecap:round; stroke-linejoin:round;">
<path d="M48500 14000
L48000 14000
" />
<path d="M50500 14000
L51000 14000
" />
</g>
<g style="fill:#006464; fill-opacity:0.0; 
stroke:#006464; stroke-width:60.000000; stroke-opacity:1; 
stroke-linecap:round; stroke-linejoin:round;">
<text x="49499.960630" y="13250.000000"
textLength="1036.181102" font-size="666.653543" lengthAdjust="spacingAndGlyphs"
text-anchor="middle" opacity="0">R3</text>
<g class="stroked-text"><desc>R3</desc>
<path d="M49416 13226
L49249 12988
" />
<path d="M49130 13226
L49130 12726
L49321 12726
L49368 12750
L49392 12773
L49416 12821
L49416 12892
L49392 12940
L49368 12964
L49321 12988
L49130 12988
" />
<path d="M49583 12726
L49892 12726
L49726 12916
L49797 12916
L49845 12940
L49868 12964
L49892 13011
L49892 13130
L49868 13178
L49845 13202
L49797 13226
L49654 13226
L49607 13202
L49583 13178
" />
</g><text x="49499.960630" y="14250.000000"
textLength="1655.236220" font-size="666.653543" lengthAdjust="spacingAndGlyphs"
text-anchor="middle" opacity="0">8.2k</text>
<g class="stroked-text"><desc>8.2k</desc>
<path d="M48892 13940
L48845 13916
L48821 13892
L48797 13845
L48797 13821
L48821 13773
L48845 13750
L48892 13726
L48988 13726
L49035 13750
L49059 13773
L49083 13821
L49083 13845
L49059 13892
L49035 13916
L48988 13940
L48892 13940
L48845 13964
L48821 13988
L48797 14035
L48797 14130
L48821 14178
L48845 14202
L48892 14226
L48988 14226
L49035 14202
L49059 14178
L49083 14130
L49083 14035
L49059 13988
L49035 13964
L48988 13940
" />
<path d="M49297 14178
L49321 14202
L49297 14226
L49273 14202
L49297 14178
L49297 14226
" />
<path d="M49511 13773
L49535 13750
L49583 13726
L49702 13726
L49749 13750
L49773 13773
L49797 13821
L49797 13869
L49773 13940
L49488 14226
L49797 14226
" />
<path d="M50011 14226
L50011 13726
" />
<path d="M50059 14035
L50202 14226
" />
<path d="M50202 13892
L50011 14083
" />
</g></g>
</g>
<g style="fill:#006464; fill-opacity:0.0; 
stroke:#006464; stroke-width:60.000000; stroke-opacity:1; 
stroke-linecap:round; stroke-linejoin:round;">
<g >
</g>
<g style="fill:#840000; fill-opacity:0.0; 
stroke:#840000; stroke-width:60.000000; stroke-opacity:1; 
stroke-linecap:round; stroke-linejoin:round;">
<path style="fill:#840000; fill-opacity:0.0; 
stroke:#840000; stroke-width:60.000000; stroke-opacity:1; 
stroke-linecap:round; stroke-linejoin:round;fill:none"
d="M 49500.000000,17000.000000
49500.000000,16600.000000
" /> 
</g>
<g style="fill:#840000; fill-opacity:1.0; 
stroke:#840000; stroke-width:60.000000; stroke-opacity:1; 
stroke-linecap:round; stroke-linejoin:round;">
<path style="fill:#840000; fill-opacity:1.0; 
stroke:#840000; stroke-width:60.000000; stroke-opacity:1; 
stroke-linecap:round; stroke-linejoin:round;fill-rule:evenodd;"
d="M 49500.000000,16450.000000
49700.000000,16900.000000
49300.000000,16900.000000
Z" /> 
</g>
<g style="fill:#840000; fill-opacity:0.0; 
stroke:#840000; stroke-width:100.000000; stroke-opacity:1; 
stroke-linecap:round; stroke-linejoin:round;">
<rect x="48500.000000" y="15600.000000" width="2000.000000" height="800.000000" rx="0.000000" />
</g>
<g style="fill:#840000; fill-opacity:0.0; 
stroke:#840000; stroke-width:60.000000; stroke-opacity:1; 
stroke-linecap:round; stroke-linejoin:round;">
<path d="M50500 16000
L51000 16000
" />
</g>
<g style="fill:#A90000; fill-opacity:0.0; 
stroke:#A90000; stroke-width:60.000000; stroke-opacity:1; 
stroke-linecap:round; stroke-linejoin:round;">
<text x="50750.000000" y="15900.000000"
textLength="536.181102" font-size="666.653543" lengthAdjust="spacingAndGlyphs"
text-anchor="middle" opacity="0">1</text>
<g class="stroked-text"><desc>1</desc>
<path d="M50892 15876
L50607 15876
" />
<path d="M50750 15876
L50750 15376
L50702 15447
L50654 15495
L50607 15519
" />
</g></g>
<g style="fill:#840000; fill-opacity:0.0; 
stroke:#840000; stroke-width:60.000000; stroke-opacity:1; 
stroke-linecap:round; stroke-linejoin:round;">
<path d="M49500 17000
L49500 17500
" />
</g>
<g style="fill:#A90000; fill-opacity:0.0; 
stroke:#A90000; stroke-width:60.000000; stroke-opacity:1; 
stroke-linecap:round; stroke-linejoin:round;">
<g transform="rotate(-90.000000 49400.000000 17250.000000)">
<text x="49400.000000" y="17250.000000"
textLength="536.181102" font-size="666.653543" lengthAdjust="spacingAndGlyphs"
text-anchor="middle" opacity="0">2</text>
</g>
<g class="stroked-text"><desc>2</desc>
<path d="M48923 17392
L48900 17369
L48876 17321
L48876 17202
L48900 17154
L48923 17130
L48971 17107
L49019 17107
L49090 17130
L49376 17416
L49376 17107
" />
</g></g>
<g style="fill:#840000; fill-opacity:0.0; 
stroke:#840000; stroke-width:60.000000; stroke-opacity:1; 
stroke-linecap:round; stroke-linejoin:round;">
<path d="M48500 16000
L48000 16000
" />
</g>
<g style="fill:#A90000; fill-opacity:0.0; 
stroke:#A90000; stroke-width:60.000000; stroke-opacity:1; 
stroke-linecap:round; stroke-linejoin:round;">
<text x="48250.000000" y="15900.000000"
textLength="536.181102" font-size="666.653543" lengthAdjust="spacingAndGlyphs"
text-anchor="middle" opacity="0">3</text>
<g class="stroked-text"><desc>3</desc>
<path d="M48083 15376
L48392 15376
L48226 15566
L48297 15566
L48345 15590
L48369 15614
L48392 15661
L48392 15780
L48369 15828
L48345 15852
L48297 15876
L48154 15876
L48107 15852
L48083 15828
" />
</g></g>
<g style="fill:#006464; fill-opacity:0.0; 
stroke:#006464; stroke-width:60.000000; stroke-opacity:1; 
stroke-linecap:round; stroke-linejoin:round;">
<text x="49266.338583" y="15499.960630"
textLength="1464.763780" font-size="666.653543" lengthAdjust="spacingAndGlyphs"
text-anchor="middle" opacity="0">RV2</text>
<g class="stroked-text"><desc>RV2</desc>
<path d="M48968 15476
L48802 15238
" />
<path d="M48682 15476
L48682 14976
L48873 14976
L48921 14999
L48944 15023
L48968 15071
L48968 15142
L48944 15190
L48921 15214
L48873 15238
L48682 15238
" />
<path d="M49111 14976
L49278 15476
L49444 14976
" />
<path d="M49587 15023
L49611 14999
L49659 14976
L49778 14976
L49825 14999
L49849 15023
L49873 15071
L49873 15118
L49849 15190
L49563 15476
L49873 15476
" />
</g><text x="49421.102362" y="16249.960630"
textLength="1655.236220" font-size="666.653543" lengthAdjust="spacingAndGlyphs"
text-anchor="middle" opacity="0">2.2k</text>
<g class="stroked-text"><desc>2.2k</desc>
<path d="M48718 15773
L48742 15749
L48790 15726
L48909 15726
L48956 15749
L48980 15773
L49004 15821
L49004 15868
L48980 15940
L48694 16226
L49004 16226
" />
<path d="M49218 16178
L49242 16202
L49218 16226
L49194 16202
L49218 16178
L49218 16226
" />
<path d="M49432 15773
L49456 15749
L49504 15726
L49623 15726
L49671 15749
L49694 15773
L49718 15821
L49718 15868
L49694 15940
L49409 16226
L49718 16226
" />
<path d="M49932 16226
L49932 15726
" />
<path d="M49980 16035
L50123 16226
" />
<path d="M50123 15892
L49932 16083
" />
</g></g>
</g>
<g style="fill:#006464; fill-opacity:0.0; 
stroke:#006464; stroke-width:60.000000; stroke-opacity:1; 
stroke-linecap:round; stroke-linejoin:round;">
<g >
</g>
<g style="fill:#840000; fill-opacity:0.0; 
stroke:#840000; stroke-width:60.000000; stroke-opacity:1; 
stroke-linecap:round; stroke-linejoin:round;">
<path style="fill:#840000; fill-opacity:0.0; 
stroke:#840000; stroke-width:60.000000; stroke-opacity:1; 
stroke-linecap:round; stroke-linejoin:round;fill:none"
d="M 54700.000000,11500.000000
55000.000000,11000.000000
" /> 
<path style="fill:#840000; fill-opacity:0.0; 
stroke:#840000; stroke-width:60.000000; stroke-opacity:1; 
stroke-linecap:round; stroke-linejoin:round;fill:none"
d="M 55000.000000,12000.000000
55000.000000,11000.000000
" /> 
<path style="fill:#840000; fill-opacity:0.0; 
stroke:#840000; stroke-width:60.000000; stroke-opacity:1; 
stroke-linecap:round; stroke-linejoin:round;fill:none"
d="M 55000.000000,11000.000000
55300.000000,11500.000000
" /> 
</g>
<g style="fill:#006464; fill-opacity:0.0; 
stroke:#006464; stroke-width:60.000000; stroke-opacity:1; 
stroke-linecap:round; stroke-linejoin:round;">
<text x="55000.000000" y="10249.960630"
textLength="2060.000000" font-size="666.653543" lengthAdjust="spacingAndGlyphs"
text-anchor="middle" opacity="0">+12V</text>
<g class="stroked-text"><desc>+12V</desc>
<path d="M54119 10035
L54500 10035
" />
<path d="M54309 10226
L54309 9845
" />
<path d="M55000 10226
L54714 10226
" />
<path d="M54857 10226
L54857 9726
L54809 9797
L54761 9845
L54714 9868
" />
<path d="M55190 9773
L55214 9749
L55261 9726
L55380 9726
L55428 9749
L55452 9773
L55476 9821
L55476 9868
L55452 9940
L55166 10226
L55476 10226
" />
<path d="M55619 9726
L55785 10226
L55952 9726
" />
</g></g>
</g>
<g style="fill:#006464; fill-opacity:0.0; 
stroke:#006464; stroke-width:60.000000; stroke-opacity:1; 
stroke-linecap:round; stroke-linejoin:round;">
<g >
</g>
<g style="fill:#840000; fill-opacity:0.0; 
stroke:#840000; stroke-width:60.000000; stroke-opacity:1; 
stroke-linecap:round; stroke-linejoin:round;">
</g>
<g style="fill:#FFFFC2; fill-opacity:0.0; 
stroke:#FFFFC2; stroke-width:60.000000; stroke-opacity:1; 
stroke-linecap:round; stroke-linejoin:round;">
</g>
<g style="fill:#FFFFC2; fill-opacity:0.6; 
stroke:#FFFFC2; stroke-width:0.039370; stroke-opacity:1; 
stroke-linecap:round; stroke-linejoin:round;">
<path style="fill:#FFFFC2; fill-opacity:0.6; 
stroke:#FFFFC2; stroke-width:0.039370; stroke-opacity:1; 
stroke-linecap:round; stroke-linejoin:round;fill-rule:evenodd;"
d="M 58000.000000,15000.000000
53000.000000,12500.000000
53000.000000,17500.000000
Z" /> 
</g>
<g style="fill:#840000; fill-opacity:0.6; 
stroke:#840000; stroke-width:0.039370; stroke-opacity:1; 
stroke-linecap:round; stroke-linejoin:round;">
</g>
<g style="fill:#840000; fill-opacity:0.0; 
stroke:#840000; stroke-width:100.000000; stroke-opacity:1; 
stroke-linecap:round; stroke-linejoin:round;">
<path style="fill:#840000; fill-opacity:0.0; 
stroke:#840000; stroke-width:100.000000; stroke-opacity:1; 
stroke-linecap:round; stroke-linejoin:round;fill:none"
d="M 58000.000000,15000.000000
53000.000000,12500.000000
53000.000000,17500.000000
Z" /> 
<path style="fill:#840000; fill-opacity:0.0; 
stroke:#840000; stroke-width:100.000000; stroke-opacity:1; 
stroke-linecap:round; stroke-linejoin:round;fill:none"
d="M 58000.000000,15000.000000
53000.000000,12500.000000
53000.000000,17500.000000
Z" /> 
</g>
<g style="fill:#840000; fill-opacity:0.0; 
stroke:#840000; stroke-width:60.000000; stroke-opacity:1; 
stroke-linecap:round; stroke-linejoin:round;">
<path d="M53000 14000
L52000 14000
" />
</g>
<g style="fill:#006464; fill-opacity:0.0; 
stroke:#006464; stroke-width:60.000000; stroke-opacity:1; 
stroke-linecap:round; stroke-linejoin:round;">
<text x="53200.000000" y="14250.000000"
textLength="1012.362205" font-size="666.653543" lengthAdjust="spacingAndGlyphs"
text-anchor="start" opacity="0">Rg</text>
<g class="stroked-text"><desc>Rg</desc>
<path d="M53634 14226
L53468 13988
" />
<path d="M53349 14226
L53349 13726
L53539 13726
L53587 13750
L53610 13773
L53634 13821
L53634 13892
L53610 13940
L53587 13964
L53539 13988
L53349 13988
" />
<path d="M54063 13892
L54063 14297
L54039 14345
L54015 14369
L53968 14392
L53896 14392
L53849 14369
" />
<path d="M54063 14202
L54015 14226
L53920 14226
L53872 14202
L53849 14178
L53825 14130
L53825 13988
L53849 13940
L53872 13916
L53920 13892
L54015 13892
L54063 13916
" />
</g></g>
<g style="fill:#A90000; fill-opacity:0.0; 
stroke:#A90000; stroke-width:60.000000; stroke-opacity:1; 
stroke-linecap:round; stroke-linejoin:round;">
<text x="52500.000000" y="13900.000000"
textLength="536.181102" font-size="666.653543" lengthAdjust="spacingAndGlyphs"
text-anchor="middle" opacity="0">1</text>
<g class="stroked-text"><desc>1</desc>
<path d="M52642 13876
L52357 13876
" />
<path d="M52500 13876
L52500 13376
L52452 13447
L52404 13495
L52357 13519
" />
</g></g>
<g style="fill:#840000; fill-opacity:0.0; 
stroke:#840000; stroke-width:60.000000; stroke-opacity:1; 
stroke-linecap:round; stroke-linejoin:round;">
<path d="M53000 17000
L52000 17000
" />
</g>
<g style="fill:#006464; fill-opacity:0.0; 
stroke:#006464; stroke-width:60.000000; stroke-opacity:1; 
stroke-linecap:round; stroke-linejoin:round;">
<text x="53200.000000" y="17250.000000"
textLength="679.055118" font-size="666.653543" lengthAdjust="spacingAndGlyphs"
text-anchor="start" opacity="0">-</text>
<g class="stroked-text"><desc>-</desc>
<path d="M53349 17035
L53730 17035
" />
</g></g>
<g style="fill:#A90000; fill-opacity:0.0; 
stroke:#A90000; stroke-width:60.000000; stroke-opacity:1; 
stroke-linecap:round; stroke-linejoin:round;">
<text x="52500.000000" y="16900.000000"
textLength="536.181102" font-size="666.653543" lengthAdjust="spacingAndGlyphs"
text-anchor="middle" opacity="0">2</text>
<g class="stroked-text"><desc>2</desc>
<path d="M52357 16423
L52380 16400
L52428 16376
L52547 16376
L52595 16400
L52619 16423
L52642 16471
L52642 16519
L52619 16590
L52333 16876
L52642 16876
" />
</g></g>
<g style="fill:#840000; fill-opacity:0.0; 
stroke:#840000; stroke-width:60.000000; stroke-opacity:1; 
stroke-linecap:round; stroke-linejoin:round;">
<path d="M53000 13000
L52000 13000
" />
</g>
<g style="fill:#006464; fill-opacity:0.0; 
stroke:#006464; stroke-width:60.000000; stroke-opacity:1; 
stroke-linecap:round; stroke-linejoin:round;">
<text x="53200.000000" y="13250.000000"
textLength="679.055118" font-size="666.653543" lengthAdjust="spacingAndGlyphs"
text-anchor="start" opacity="0">+</text>
<g class="stroked-text"><desc>+</desc>
<path d="M53349 13035
L53730 13035
" />
<path d="M53539 13226
L53539 12845
" />
</g></g>
<g style="fill:#A90000; fill-opacity:0.0; 
stroke:#A90000; stroke-width:60.000000; stroke-opacity:1; 
stroke-linecap:round; stroke-linejoin:round;">
<text x="52500.000000" y="12900.000000"
textLength="536.181102" font-size="666.653543" lengthAdjust="spacingAndGlyphs"
text-anchor="middle" opacity="0">3</text>
<g class="stroked-text"><desc>3</desc>
<path d="M52333 12376
L52642 12376
L52476 12566
L52547 12566
L52595 12590
L52619 12614
L52642 12661
L52642 12780
L52619 12828
L52595 12852
L52547 12876
L52404 12876
L52357 12852
L52333 12828
" />
</g></g>
<g style="fill:#840000; fill-opacity:0.0; 
stroke:#840000; stroke-width:60.000000; stroke-opacity:1; 
stroke-linecap:round; stroke-linejoin:round;">
<path d="M55000 16500
L55000 18000
" />
</g>
<g style="fill:#006464; fill-opacity:0.0; 
stroke:#006464; stroke-width:60.000000; stroke-opacity:1; 
stroke-linecap:round; stroke-linejoin:round;">
<g transform="rotate(-90.000000 55000.000000 16300.000000)">
<text x="55000.000000" y="16550.000000"
textLength="1107.637795" font-size="666.653543" lengthAdjust="spacingAndGlyphs"
text-anchor="start" opacity="0">V-</text>
</g>
<g class="stroked-text"><desc>V-</desc>
<path d="M54726 16222
L55226 16055
L54726 15889
" />
<path d="M55035 15722
L55035 15341
" />
</g></g>
<g style="fill:#A90000; fill-opacity:0.0; 
stroke:#A90000; stroke-width:60.000000; stroke-opacity:1; 
stroke-linecap:round; stroke-linejoin:round;">
<g transform="rotate(-90.000000 54900.000000 17250.000000)">
<text x="54900.000000" y="17250.000000"
textLength="536.181102" font-size="666.653543" lengthAdjust="spacingAndGlyphs"
text-anchor="middle" opacity="0">4</text>
</g>
<g class="stroked-text"><desc>4</desc>
<path d="M54542 17154
L54876 17154
" />
<path d="M54352 17273
L54709 17392
L54709 17083
" />
</g></g>
<g style="fill:#840000; fill-opacity:0.0; 
stroke:#840000; stroke-width:60.000000; stroke-opacity:1; 
stroke-linecap:round; stroke-linejoin:round;">
<path d="M56000 16000
L56000 18000
" />
</g>
<g style="fill:#006464; fill-opacity:0.0; 
stroke:#006464; stroke-width:60.000000; stroke-opacity:1; 
stroke-linecap:round; stroke-linejoin:round;">
<g transform="rotate(-90.000000 56000.000000 15800.000000)">
<text x="56000.000000" y="16050.000000"
textLength="1274.291339" font-size="666.653543" lengthAdjust="spacingAndGlyphs"
text-anchor="start" opacity="0">Ref</text>
</g>
<g class="stroked-text"><desc>Ref</desc>
<path d="M56226 15365
L55988 15531
" />
<path d="M56226 15650
L55726 15650
L55726 15460
L55750 15412
L55773 15389
L55821 15365
L55892 15365
L55940 15389
L55964 15412
L55988 15460
L55988 15650
" />
<path d="M56202 14960
L56226 15008
L56226 15103
L56202 15150
L56154 15174
L55964 15174
L55916 15150
L55892 15103
L55892 15008
L55916 14960
L55964 14936
L56011 14936
L56059 15174
" />
<path d="M55892 14793
L55892 14603
" />
<path d="M56226 14722
L55797 14722
L55750 14698
L55726 14650
L55726 14603
" />
</g></g>
<g style="fill:#A90000; fill-opacity:0.0; 
stroke:#A90000; stroke-width:60.000000; stroke-opacity:1; 
stroke-linecap:round; stroke-linejoin:round;">
<g transform="rotate(-90.000000 55900.000000 17000.000000)">
<text x="55900.000000" y="17000.000000"
textLength="536.181102" font-size="666.653543" lengthAdjust="spacingAndGlyphs"
text-anchor="middle" opacity="0">5</text>
</g>
<g class="stroked-text"><desc>5</desc>
<path d="M55376 16880
L55376 17119
L55614 17142
L55590 17119
L55566 17071
L55566 16952
L55590 16904
L55614 16880
L55661 16857
L55780 16857
L55828 16880
L55852 16904
L55876 16952
L55876 17071
L55852 17119
L55828 17142
" />
</g></g>
<g style="fill:#840000; fill-opacity:0.0; 
stroke:#840000; stroke-width:60.000000; stroke-opacity:1; 
stroke-linecap:round; stroke-linejoin:round;">
<path d="M58000 15000
L59000 15000
" />
</g>
<g style="fill:#A90000; fill-opacity:0.0; 
stroke:#A90000; stroke-width:60.000000; stroke-opacity:1; 
stroke-linecap:round; stroke-linejoin:round;">
<text x="58500.000000" y="14900.000000"
textLength="536.181102" font-size="666.653543" lengthAdjust="spacingAndGlyphs"
text-anchor="middle" opacity="0">6</text>
<g class="stroked-text"><desc>6</desc>
<path d="M58595 14376
L58500 14376
L58452 14400
L58428 14423
L58380 14495
L58357 14590
L58357 14780
L58380 14828
L58404 14852
L58452 14876
L58547 14876
L58595 14852
L58619 14828
L58642 14780
L58642 14661
L58619 14614
L58595 14590
L58547 14566
L58452 14566
L58404 14590
L58380 14614
L58357 14661
" />
</g></g>
<g style="fill:#840000; fill-opacity:0.0; 
stroke:#840000; stroke-width:60.000000; stroke-opacity:1; 
stroke-linecap:round; stroke-linejoin:round;">
<path d="M55000 13500
L55000 12000
" />
</g>
<g style="fill:#006464; fill-opacity:0.0; 
stroke:#006464; stroke-width:60.000000; stroke-opacity:1; 
stroke-linecap:round; stroke-linejoin:round;">
<g transform="rotate(-90.000000 55000.000000 13700.000000)">
<text x="55000.000000" y="13950.000000"
textLength="1107.637795" font-size="666.653543" lengthAdjust="spacingAndGlyphs"
text-anchor="end" opacity="0">V+</text>
</g>
<g class="stroked-text"><desc>V+</desc>
<path d="M54726 14730
L55226 14563
L54726 14396
" />
<path d="M55035 14230
L55035 13849
" />
<path d="M55226 14039
L54845 14039
" />
</g></g>
<g style="fill:#A90000; fill-opacity:0.0; 
stroke:#A90000; stroke-width:60.000000; stroke-opacity:1; 
stroke-linecap:round; stroke-linejoin:round;">
<g transform="rotate(-90.000000 54900.000000 12750.000000)">
<text x="54900.000000" y="12750.000000"
textLength="536.181102" font-size="666.653543" lengthAdjust="spacingAndGlyphs"
text-anchor="middle" opacity="0">7</text>
</g>
<g class="stroked-text"><desc>7</desc>
<path d="M54376 12916
L54376 12583
L54876 12797
" />
</g></g>
<g style="fill:#840000; fill-opacity:0.0; 
stroke:#840000; stroke-width:60.000000; stroke-opacity:1; 
stroke-linecap:round; stroke-linejoin:round;">
<path d="M53000 16000
L52000 16000
" />
</g>
<g style="fill:#006464; fill-opacity:0.0; 
stroke:#006464; stroke-width:60.000000; stroke-opacity:1; 
stroke-linecap:round; stroke-linejoin:round;">
<text x="53200.000000" y="16250.000000"
textLength="1012.362205" font-size="666.653543" lengthAdjust="spacingAndGlyphs"
text-anchor="start" opacity="0">Rg</text>
<g class="stroked-text"><desc>Rg</desc>
<path d="M53634 16226
L53468 15988
" />
<path d="M53349 16226
L53349 15726
L53539 15726
L53587 15750
L53610 15773
L53634 15821
L53634 15892
L53610 15940
L53587 15964
L53539 15988
L53349 15988
" />
<path d="M54063 15892
L54063 16297
L54039 16345
L54015 16369
L53968 16392
L53896 16392
L53849 16369
" />
<path d="M54063 16202
L54015 16226
L53920 16226
L53872 16202
L53849 16178
L53825 16130
L53825 15988
L53849 15940
L53872 15916
L53920 15892
L54015 15892
L54063 15916
" />
</g></g>
<g style="fill:#A90000; fill-opacity:0.0; 
stroke:#A90000; stroke-width:60.000000; stroke-opacity:1; 
stroke-linecap:round; stroke-linejoin:round;">
<text x="52500.000000" y="15900.000000"
textLength="536.181102" font-size="666.653543" lengthAdjust="spacingAndGlyphs"
text-anchor="middle" opacity="0">8</text>
<g class="stroked-text"><desc>8</desc>
<path d="M52452 15590
L52404 15566
L52380 15542
L52357 15495
L52357 15471
L52380 15423
L52404 15400
L52452 15376
L52547 15376
L52595 15400
L52619 15423
L52642 15471
L52642 15495
L52619 15542
L52595 15566
L52547 15590
L52452 15590
L52404 15614
L52380 15638
L52357 15685
L52357 15780
L52380 15828
L52404 15852
L52452 15876
L52547 15876
L52595 15852
L52619 15828
L52642 15780
L52642 15685
L52619 15638
L52595 15614
L52547 15590
" />
</g></g>
<g style="fill:#006464; fill-opacity:0.0; 
stroke:#006464; stroke-width:60.000000; stroke-opacity:1; 
stroke-linecap:round; stroke-linejoin:round;">
<text x="60000.000000" y="13399.960630"
textLength="1060.000000" font-size="666.653543" lengthAdjust="spacingAndGlyphs"
text-anchor="middle" opacity="0">U2</text>
<g class="stroked-text"><desc>U2</desc>
<path d="M59619 12876
L59619 13280
L59642 13328
L59666 13352
L59714 13376
L59809 13376
L59857 13352
L59880 13328
L59904 13280
L59904 12876
" />
<path d="M60119 12923
L60142 12899
L60190 12876
L60309 12876
L60357 12899
L60380 12923
L60404 12971
L60404 13018
L60380 13090
L60095 13376
L60404 13376
" />
</g><text x="60000.000000" y="14399.960630"
textLength="2679.055118" font-size="666.653543" lengthAdjust="spacingAndGlyphs"
text-anchor="middle" opacity="0">INA111</text>
<g class="stroked-text"><desc>INA111</desc>
<path d="M58809 14376
L58809 13876
" />
<path d="M59047 14376
L59047 13876
L59333 14376
L59333 13876
" />
<path d="M59547 14233
L59785 14233
" />
<path d="M59500 14376
L59666 13876
L59833 14376
" />
<path d="M60261 14376
L59976 14376
" />
<path d="M60119 14376
L60119 13876
L60071 13947
L60023 13995
L59976 14018
" />
<path d="M60738 14376
L60452 14376
" />
<path d="M60595 14376
L60595 13876
L60547 13947
L60500 13995
L60452 14018
" />
<path d="M61214 14376
L60928 14376
" />
<path d="M61071 14376
L61071 13876
L61023 13947
L60976 13995
L60928 14018
" />
</g></g>
</g>
<g style="fill:#006464; fill-opacity:0.0; 
stroke:#006464; stroke-width:62.519685; stroke-opacity:1; 
stroke-linecap:round; stroke-linejoin:round;">
</g>
<g style="fill:#006464; fill-opacity:0.0; 
stroke:#006464; stroke-width:60.000000; stroke-opacity:1; 
stroke-linecap:round; stroke-linejoin:round;">
</g>
<g style="fill:#840000; fill-opacity:0.0; 
stroke:#840000; stroke-width:60.000000; stroke-opacity:1; 
stroke-linecap:round; stroke-linejoin:round;">
<text x="47937.480315" y="18785.748031"
textLength="1869.527559" font-size="666.653543" lengthAdjust="spacingAndGlyphs"
text-anchor="end" opacity="0">VREF</text>
<g class="stroked-text"><desc>VREF</desc>
<path d="M46145 18261
L46312 18761
L46478 18261
" />
<path d="M46931 18761
L46764 18523
" />
<path d="M46645 18761
L46645 18261
L46836 18261
L46883 18285
L46907 18309
L46931 18357
L46931 18428
L46907 18476
L46883 18500
L46836 18523
L46645 18523
" />
<path d="M47145 18500
L47312 18500
" />
<path d="M47383 18761
L47145 18761
L47145 18261
L47383 18261
" />
<path d="M47764 18500
L47597 18500
" />
<path d="M47597 18761
L47597 18261
L47836 18261
" />
</g><path style="fill:#840000; fill-opacity:0.0; 
stroke:#840000; stroke-width:60.000000; stroke-opacity:1; 
stroke-linecap:round; stroke-linejoin:round;fill:none"
d="M 48500.000000,18500.000000
48062.480315,17999.842520
45752.755906,17999.842520
45752.755906,18500.000000
45752.755906,19000.157480
48062.480315,19000.157480
Z" /> 
</g>
<g style="fill:#840000; fill-opacity:0.0; 
stroke:#840000; stroke-width:62.519685; stroke-opacity:1; 
stroke-linecap:round; stroke-linejoin:round;">
</g>
<g style="fill:#840000; fill-opacity:0.0; 
stroke:#840000; stroke-width:60.000000; stroke-opacity:1; 
stroke-linecap:round; stroke-linejoin:round;">
<text x="48937.480315" y="11535.748031"
textLength="2848.228346" font-size="666.653543" lengthAdjust="spacingAndGlyphs"
text-anchor="end" opacity="0">I-SENS</text>
<g class="stroked-text"><desc>I-SENS</desc>
<path d="M46240 11511
L46240 11011
" />
<path d="M46478 11321
L46859 11321
" />
<path d="M47074 11488
L47145 11511
L47264 11511
L47312 11488
L47336 11464
L47359 11416
L47359 11369
L47336 11321
L47312 11297
L47264 11273
L47169 11250
L47121 11226
L47097 11202
L47074 11154
L47074 11107
L47097 11059
L47121 11035
L47169 11011
L47288 11011
L47359 11035
" />
<path d="M47574 11250
L47740 11250
" />
<path d="M47812 11511
L47574 11511
L47574 11011
L47812 11011
" />
<path d="M48026 11511
L48026 11011
L48312 11511
L48312 11011
" />
<path d="M48526 11488
L48597 11511
L48716 11511
L48764 11488
L48788 11464
L48812 11416
L48812 11369
L48788 11321
L48764 11297
L48716 11273
L48621 11250
L48574 11226
L48550 11202
L48526 11154
L48526 11107
L48550 11059
L48574 11035
L48621 11011
L48740 11011
L48812 11035
" />
</g><path style="fill:#840000; fill-opacity:0.0; 
stroke:#840000; stroke-width:60.000000; stroke-opacity:1; 
stroke-linecap:round; stroke-linejoin:round;fill:none"
d="M 49500.000000,11250.000000
49062.480315,10749.842520
45776.574803,10749.842520
45776.574803,11250.000000
45776.574803,11750.157480
49062.480315,11750.157480
Z" /> 
</g>
<g style="fill:#840000; fill-opacity:0.0; 
stroke:#840000; stroke-width:62.519685; stroke-opacity:1; 
stroke-linecap:round; stroke-linejoin:round;">
</g>
<g style="fill:#840000; fill-opacity:0.0; 
stroke:#840000; stroke-width:60.000000; stroke-opacity:1; 
stroke-linecap:round; stroke-linejoin:round;">
<text x="59562.519685" y="15285.748031"
textLength="4205.393701" font-size="666.653543" lengthAdjust="spacingAndGlyphs"
text-anchor="start" opacity="0">I-SIN-OUT</text>
<g class="stroked-text"><desc>I-SIN-OUT</desc>
<path d="M59711 15261
L59711 14761
" />
<path d="M59949 15071
L60330 15071
" />
<path d="M60544 15238
L60616 15261
L60735 15261
L60782 15238
L60806 15214
L60830 15166
L60830 15119
L60806 15071
L60782 15047
L60735 15023
L60640 15000
L60592 14976
L60568 14952
L60544 14904
L60544 14857
L60568 14809
L60592 14785
L60640 14761
L60759 14761
L60830 14785
" />
<path d="M61044 15261
L61044 14761
" />
<path d="M61282 15261
L61282 14761
L61568 15261
L61568 14761
" />
<path d="M61806 15071
L62187 15071
" />
<path d="M62521 14761
L62616 14761
L62663 14785
L62711 14833
L62735 14928
L62735 15095
L62711 15190
L62663 15238
L62616 15261
L62521 15261
L62473 15238
L62425 15190
L62402 15095
L62402 14928
L62425 14833
L62473 14785
L62521 14761
" />
<path d="M62949 14761
L62949 15166
L62973 15214
L62997 15238
L63044 15261
L63140 15261
L63187 15238
L63211 15214
L63235 15166
L63235 14761
" />
<path d="M63402 14761
L63687 14761
" />
<path d="M63544 15261
L63544 14761
" />
</g><path style="fill:#840000; fill-opacity:0.0; 
stroke:#840000; stroke-width:60.000000; stroke-opacity:1; 
stroke-linecap:round; stroke-linejoin:round;fill:none"
d="M 59000.000000,15000.000000
59437.519685,15500.157480
64080.590551,15500.157480
64080.590551,15000.000000
64080.590551,14499.842520
59437.519685,14499.842520
Z" /> 
</g>
<g style="fill:#840000; fill-opacity:0.0; 
stroke:#840000; stroke-width:62.519685; stroke-opacity:1; 
stroke-linecap:round; stroke-linejoin:round;">
</g>
<g style="fill:#840000; fill-opacity:0.0; 
stroke:#840000; stroke-width:60.000000; stroke-opacity:1; 
stroke-linecap:round; stroke-linejoin:round;">
</g>
<g style="fill:#0000C2; fill-opacity:0.0; 
stroke:#0000C2; stroke-width:60.000000; stroke-opacity:1; 
stroke-linecap:round; stroke-linejoin:round;">
<text x="59000.000000" y="16252.480315"
textLength="14467.283465" font-size="666.653543" lengthAdjust="spacingAndGlyphs"
text-anchor="start" opacity="0">Uscita sinusoidale misura di corrente</text>
<g class="stroked-text"><desc>Uscita sinusoidale misura di corrente</desc>
<path d="M59149 15728
L59149 16133
L59172 16181
L59196 16204
L59244 16228
L59339 16228
L59387 16204
L59410 16181
L59434 16133
L59434 15728
" />
<path d="M59649 16204
L59696 16228
L59791 16228
L59839 16204
L59863 16157
L59863 16133
L59839 16085
L59791 16061
L59720 16061
L59672 16038
L59649 15990
L59649 15966
L59672 15919
L59720 15895
L59791 15895
L59839 15919
" />
<path d="M60291 16204
L60244 16228
L60149 16228
L60101 16204
L60077 16181
L60053 16133
L60053 15990
L60077 15942
L60101 15919
L60149 15895
L60244 15895
L60291 15919
" />
<path d="M60506 16228
L60506 15895
" />
<path d="M60506 15728
L60482 15752
L60506 15776
L60530 15752
L60506 15728
L60506 15776
" />
<path d="M60672 15895
L60863 15895
" />
<path d="M60744 15728
L60744 16157
L60768 16204
L60815 16228
L60863 16228
" />
<path d="M61244 16228
L61244 15966
L61220 15919
L61172 15895
L61077 15895
L61030 15919
" />
<path d="M61244 16204
L61196 16228
L61077 16228
L61030 16204
L61006 16157
L61006 16109
L61030 16061
L61077 16038
L61196 16038
L61244 16014
" />
<path d="M61839 16204
L61887 16228
L61982 16228
L62030 16204
L62053 16157
L62053 16133
L62030 16085
L61982 16061
L61910 16061
L61863 16038
L61839 15990
L61839 15966
L61863 15919
L61910 15895
L61982 15895
L62030 15919
" />
<path d="M62268 16228
L62268 15895
" />
<path d="M62268 15728
L62244 15752
L62268 15776
L62291 15752
L62268 15728
L62268 15776
" />
<path d="M62506 15895
L62506 16228
" />
<path d="M62506 15942
L62530 15919
L62577 15895
L62649 15895
L62696 15919
L62720 15966
L62720 16228
" />
<path d="M63172 15895
L63172 16228
" />
<path d="M62958 15895
L62958 16157
L62982 16204
L63030 16228
L63101 16228
L63149 16204
L63172 16181
" />
<path d="M63387 16204
L63434 16228
L63530 16228
L63577 16204
L63601 16157
L63601 16133
L63577 16085
L63530 16061
L63458 16061
L63410 16038
L63387 15990
L63387 15966
L63410 15919
L63458 15895
L63530 15895
L63577 15919
" />
<path d="M63887 16228
L63839 16204
L63815 16181
L63791 16133
L63791 15990
L63815 15942
L63839 15919
L63887 15895
L63958 15895
L64006 15919
L64030 15942
L64053 15990
L64053 16133
L64030 16181
L64006 16204
L63958 16228
L63887 16228
" />
<path d="M64268 16228
L64268 15895
" />
<path d="M64268 15728
L64244 15752
L64268 15776
L64291 15752
L64268 15728
L64268 15776
" />
<path d="M64720 16228
L64720 15728
" />
<path d="M64720 16204
L64672 16228
L64577 16228
L64530 16204
L64506 16181
L64482 16133
L64482 15990
L64506 15942
L64530 15919
L64577 15895
L64672 15895
L64720 15919
" />
<path d="M65172 16228
L65172 15966
L65149 15919
L65101 15895
L65006 15895
L64958 15919
" />
<path d="M65172 16204
L65125 16228
L65006 16228
L64958 16204
L64934 16157
L64934 16109
L64958 16061
L65006 16038
L65125 16038
L65172 16014
" />
<path d="M65482 16228
L65434 16204
L65410 16157
L65410 15728
" />
<path d="M65863 16204
L65815 16228
L65720 16228
L65672 16204
L65649 16157
L65649 15966
L65672 15919
L65720 15895
L65815 15895
L65863 15919
L65887 15966
L65887 16014
L65649 16061
" />
<path d="M66482 16228
L66482 15895
" />
<path d="M66482 15942
L66506 15919
L66553 15895
L66625 15895
L66672 15919
L66696 15966
L66696 16228
" />
<path d="M66696 15966
L66720 15919
L66768 15895
L66839 15895
L66887 15919
L66910 15966
L66910 16228
" />
<path d="M67149 16228
L67149 15895
" />
<path d="M67149 15728
L67125 15752
L67149 15776
L67172 15752
L67149 15728
L67149 15776
" />
<path d="M67363 16204
L67410 16228
L67506 16228
L67553 16204
L67577 16157
L67577 16133
L67553 16085
L67506 16061
L67434 16061
L67387 16038
L67363 15990
L67363 15966
L67387 15919
L67434 15895
L67506 15895
L67553 15919
" />
<path d="M68006 15895
L68006 16228
" />
<path d="M67791 15895
L67791 16157
L67815 16204
L67863 16228
L67934 16228
L67982 16204
L68006 16181
" />
<path d="M68244 16228
L68244 15895
" />
<path d="M68244 15990
L68268 15942
L68291 15919
L68339 15895
L68387 15895
" />
<path d="M68768 16228
L68768 15966
L68744 15919
L68696 15895
L68601 15895
L68553 15919
" />
<path d="M68768 16204
L68720 16228
L68601 16228
L68553 16204
L68530 16157
L68530 16109
L68553 16061
L68601 16038
L68720 16038
L68768 16014
" />
<path d="M69601 16228
L69601 15728
" />
<path d="M69601 16204
L69553 16228
L69458 16228
L69410 16204
L69387 16181
L69363 16133
L69363 15990
L69387 15942
L69410 15919
L69458 15895
L69553 15895
L69601 15919
" />
<path d="M69839 16228
L69839 15895
" />
<path d="M69839 15728
L69815 15752
L69839 15776
L69863 15752
L69839 15728
L69839 15776
" />
<path d="M70672 16204
L70625 16228
L70530 16228
L70482 16204
L70458 16181
L70434 16133
L70434 15990
L70458 15942
L70482 15919
L70530 15895
L70625 15895
L70672 15919
" />
<path d="M70958 16228
L70910 16204
L70887 16181
L70863 16133
L70863 15990
L70887 15942
L70910 15919
L70958 15895
L71030 15895
L71077 15919
L71101 15942
L71125 15990
L71125 16133
L71101 16181
L71077 16204
L71030 16228
L70958 16228
" />
<path d="M71339 16228
L71339 15895
" />
<path d="M71339 15990
L71363 15942
L71387 15919
L71434 15895
L71482 15895
" />
<path d="M71649 16228
L71649 15895
" />
<path d="M71649 15990
L71672 15942
L71696 15919
L71744 15895
L71791 15895
" />
<path d="M72149 16204
L72101 16228
L72006 16228
L71958 16204
L71934 16157
L71934 15966
L71958 15919
L72006 15895
L72101 15895
L72149 15919
L72172 15966
L72172 16014
L71934 16061
" />
<path d="M72387 15895
L72387 16228
" />
<path d="M72387 15942
L72410 15919
L72458 15895
L72530 15895
L72577 15919
L72601 15966
L72601 16228
" />
<path d="M72768 15895
L72958 15895
" />
<path d="M72839 15728
L72839 16157
L72863 16204
L72910 16228
L72958 16228
" />
<path d="M73315 16204
L73268 16228
L73172 16228
L73125 16204
L73101 16157
L73101 15966
L73125 15919
L73172 15895
L73268 15895
L73315 15919
L73339 15966
L73339 16014
L73101 16061
" />
</g><text x="59000.000000" y="17057.480315"
textLength="6417.125984" font-size="666.653543" lengthAdjust="spacingAndGlyphs"
text-anchor="start" opacity="0">Vpmax = 7.071V</text>
<g class="stroked-text"><desc>Vpmax = 7.071V</desc>
<path d="M59077 16533
L59244 17033
L59410 16533
" />
<path d="M59577 16700
L59577 17200
" />
<path d="M59577 16724
L59625 16700
L59720 16700
L59768 16724
L59791 16747
L59815 16795
L59815 16938
L59791 16986
L59768 17009
L59720 17033
L59625 17033
L59577 17009
" />
<path d="M60030 17033
L60030 16700
" />
<path d="M60030 16747
L60053 16724
L60101 16700
L60172 16700
L60220 16724
L60244 16771
L60244 17033
" />
<path d="M60244 16771
L60268 16724
L60315 16700
L60387 16700
L60434 16724
L60458 16771
L60458 17033
" />
<path d="M60910 17033
L60910 16771
L60887 16724
L60839 16700
L60744 16700
L60696 16724
" />
<path d="M60910 17009
L60863 17033
L60744 17033
L60696 17009
L60672 16962
L60672 16914
L60696 16866
L60744 16843
L60863 16843
L60910 16819
" />
<path d="M61101 17033
L61363 16700
" />
<path d="M61101 16700
L61363 17033
" />
<path d="M61934 16771
L62315 16771
" />
<path d="M62315 16914
L61934 16914
" />
<path d="M62887 16533
L63220 16533
L63006 17033
" />
<path d="M63410 16986
L63434 17009
L63410 17033
L63387 17009
L63410 16986
L63410 17033
" />
<path d="M63744 16533
L63791 16533
L63839 16557
L63863 16581
L63887 16628
L63910 16724
L63910 16843
L63887 16938
L63863 16986
L63839 17009
L63791 17033
L63744 17033
L63696 17009
L63672 16986
L63649 16938
L63625 16843
L63625 16724
L63649 16628
L63672 16581
L63696 16557
L63744 16533
" />
<path d="M64077 16533
L64410 16533
L64196 17033
" />
<path d="M64863 17033
L64577 17033
" />
<path d="M64720 17033
L64720 16533
L64672 16605
L64625 16652
L64577 16676
" />
<path d="M65006 16533
L65172 17033
L65339 16533
" />
</g><text x="59000.000000" y="17862.480315"
textLength="5298.110236" font-size="666.653543" lengthAdjust="spacingAndGlyphs"
text-anchor="start" opacity="0">Veffmax = 5V</text>
<g class="stroked-text"><desc>Veffmax = 5V</desc>
<path d="M59077 17338
L59244 17838
L59410 17338
" />
<path d="M59768 17814
L59720 17838
L59625 17838
L59577 17814
L59553 17767
L59553 17576
L59577 17529
L59625 17505
L59720 17505
L59768 17529
L59791 17576
L59791 17624
L59553 17671
" />
<path d="M59934 17505
L60125 17505
" />
<path d="M60006 17838
L60006 17410
L60030 17362
L60077 17338
L60125 17338
" />
<path d="M60220 17505
L60410 17505
" />
<path d="M60291 17838
L60291 17410
L60315 17362
L60363 17338
L60410 17338
" />
<path d="M60577 17838
L60577 17505
" />
<path d="M60577 17552
L60601 17529
L60649 17505
L60720 17505
L60768 17529
L60791 17576
L60791 17838
" />
<path d="M60791 17576
L60815 17529
L60863 17505
L60934 17505
L60982 17529
L61006 17576
L61006 17838
" />
<path d="M61458 17838
L61458 17576
L61434 17529
L61387 17505
L61291 17505
L61244 17529
" />
<path d="M61458 17814
L61410 17838
L61291 17838
L61244 17814
L61220 17767
L61220 17719
L61244 17671
L61291 17648
L61410 17648
L61458 17624
" />
<path d="M61649 17838
L61910 17505
" />
<path d="M61649 17505
L61910 17838
" />
<path d="M62482 17576
L62863 17576
" />
<path d="M62863 17719
L62482 17719
" />
<path d="M63720 17338
L63482 17338
L63458 17576
L63482 17552
L63530 17529
L63649 17529
L63696 17552
L63720 17576
L63744 17624
L63744 17743
L63720 17791
L63696 17814
L63649 17838
L63530 17838
L63482 17814
L63458 17791
" />
<path d="M63887 17338
L64053 17838
L64220 17338
" />
</g></g>
<g style="fill:#009600; fill-opacity:0.0; 
stroke:#009600; stroke-width:60.000000; stroke-opacity:1; 
stroke-linecap:round; stroke-linejoin:round;">
<path d="M51000 14000
L52000 14000
" />
<path d="M47500 16000
L47500 14000
" />
<path d="M52000 11250
L52000 13000
" />
<path d="M51000 16000
L52000 16000
" />
<path d="M47500 14000
L48000 14000
" />
<path d="M49500 11250
L52000 11250
" />
<path d="M52000 18500
L52000 17000
" />
<path d="M51000 17500
L51000 16000
" />
<path d="M49500 17500
L51000 17500
" />
<path d="M48500 18500
L52000 18500
" />
<path d="M48000 16000
L47500 16000
" />
</g>
<g style="fill:#009600; fill-opacity:1.0; 
stroke:#009600; stroke-width:60.000000; stroke-opacity:1; 
stroke-linecap:round; stroke-linejoin:round;">
<circle cx="51000.000000" cy="16000.000000" r="180.000000" /> 
</g> 
</svg>
